<?xml version="1.0" encoding="UTF-8" standalone="no"?>
<svg
   id="Layer_1"
   viewBox="0 0 595.28 226.77"
   version="1.1"
   sodipodi:docname="Escalator_full colour-final.svg"
   inkscape:export-filename="Escalator_full colour-lores.png"
   inkscape:export-xdpi="72"
   inkscape:export-ydpi="72"
   inkscape:version="1.2.1 (9c6d41e, 2022-07-14)"
   xmlns:inkscape="http://www.inkscape.org/namespaces/inkscape"
   xmlns:sodipodi="http://sodipodi.sourceforge.net/DTD/sodipodi-0.dtd"
   xmlns:xlink="http://www.w3.org/1999/xlink"
   xmlns="http://www.w3.org/2000/svg"
   xmlns:svg="http://www.w3.org/2000/svg">
  <sodipodi:namedview
     id="namedview4037"
     pagecolor="#ffffff"
     bordercolor="#000000"
     borderopacity="0.25"
     inkscape:showpageshadow="2"
     inkscape:pageopacity="0.0"
     inkscape:pagecheckerboard="0"
     inkscape:deskcolor="#d1d1d1"
     showgrid="false"
     inkscape:zoom="2.200645"
     inkscape:cx="101.10672"
     inkscape:cy="81.794202"
     inkscape:window-width="1870"
     inkscape:window-height="1043"
     inkscape:window-x="0"
     inkscape:window-y="0"
     inkscape:window-maximized="1"
     inkscape:current-layer="Layer_1" />
  <defs
     id="defs3758">
    <linearGradient
       id="linearGradient4829"
       x1="108.63"
       y1="73.25"
       x2="314.94"
       y2="73.25"
       gradientUnits="userSpaceOnUse">
      <stop
         offset="0"
         stop-color="#fff"
         id="stop4809" />
      <stop
         offset="0"
         stop-color="#f7d9db"
         id="stop4811" />
      <stop
         offset=".13"
         stop-color="#eeaeb1"
         id="stop4813" />
      <stop
         offset=".22"
         stop-color="#e6888c"
         id="stop4815" />
      <stop
         offset=".31"
         stop-color="#df676d"
         id="stop4817" />
      <stop
         offset=".4"
         stop-color="#da4d53"
         id="stop4819" />
      <stop
         offset=".5"
         stop-color="#d63940"
         id="stop4821" />
      <stop
         offset=".62"
         stop-color="#d32a32"
         id="stop4823" />
      <stop
         offset=".76"
         stop-color="#d1222a"
         id="stop4825" />
      <stop
         offset="1"
         stop-color="#d12028"
         id="stop4827" />
    </linearGradient>
    <linearGradient
       id="linearGradient4807"
       x1="108.63"
       y1="73.25"
       x2="314.94"
       y2="73.25"
       gradientUnits="userSpaceOnUse">
      <stop
         offset="0"
         stop-color="#fff"
         id="stop4787" />
      <stop
         offset="0"
         stop-color="#f7d9db"
         id="stop4789" />
      <stop
         offset=".13"
         stop-color="#eeaeb1"
         id="stop4791" />
      <stop
         offset=".22"
         stop-color="#e6888c"
         id="stop4793" />
      <stop
         offset=".31"
         stop-color="#df676d"
         id="stop4795" />
      <stop
         offset=".4"
         stop-color="#da4d53"
         id="stop4797" />
      <stop
         offset=".5"
         stop-color="#d63940"
         id="stop4799" />
      <stop
         offset=".62"
         stop-color="#d32a32"
         id="stop4801" />
      <stop
         offset=".76"
         stop-color="#d1222a"
         id="stop4803" />
      <stop
         offset="1"
         stop-color="#d12028"
         id="stop4805" />
    </linearGradient>
    <style
       id="style3690">.cls-1{fill:url(#linear-gradient-12);}.cls-1,.cls-2,.cls-3,.cls-4,.cls-5,.cls-6,.cls-7,.cls-8,.cls-9,.cls-10,.cls-11,.cls-12,.cls-13,.cls-14,.cls-15,.cls-16,.cls-17,.cls-18,.cls-19,.cls-20,.cls-21,.cls-22,.cls-23,.cls-24,.cls-25,.cls-26,.cls-27,.cls-28,.cls-29,.cls-30,.cls-31,.cls-32,.cls-33{stroke-width:0px;}.cls-2{fill:url(#linear-gradient-17);}.cls-3{fill:url(#linear-gradient-19);}.cls-4{fill:url(#linear-gradient-33);}.cls-34{stroke:url(#linear-gradient);stroke-width:1.34px;}.cls-34,.cls-35,.cls-36{fill:none;stroke-miterlimit:10;}.cls-5{fill:url(#linear-gradient-21);}.cls-6{fill:url(#linear-gradient-6);}.cls-7{fill:url(#linear-gradient-15);}.cls-8{fill:url(#linear-gradient-11);}.cls-9{fill:url(#linear-gradient-5);}.cls-10{fill:url(#linear-gradient-31);}.cls-11{fill:url(#linear-gradient-34);}.cls-12{fill:url(#linear-gradient-13);}.cls-13{fill:url(#linear-gradient-23);}.cls-35{stroke:url(#linear-gradient-2);stroke-width:1.31px;}.cls-14{fill:url(#linear-gradient-25);}.cls-15{fill:#d12028;}.cls-16{fill:url(#linear-gradient-16);}.cls-17{fill:url(#linear-gradient-22);}.cls-18{fill:url(#linear-gradient-32);}.cls-19{fill:url(#linear-gradient-20);}.cls-20{fill:url(#linear-gradient-14);}.cls-36{stroke:url(#linear-gradient-3);stroke-width:1.35px;}.cls-21{fill:url(#linear-gradient-7);}.cls-22{fill:url(#linear-gradient-9);}.cls-23{fill:url(#linear-gradient-27);}.cls-24{fill:url(#linear-gradient-8);}.cls-25{fill:url(#linear-gradient-24);}.cls-26{fill:url(#linear-gradient-26);}.cls-27{fill:url(#linear-gradient-18);}.cls-28{fill:url(#linear-gradient-30);}.cls-29{fill:url(#linear-gradient-29);}.cls-30{fill:url(#linear-gradient-28);}.cls-31{fill:url(#linear-gradient-10);}.cls-32{fill:url(#linear-gradient-4);}.cls-33{fill:#243268;}</style>
    <linearGradient
       id="linear-gradient"
       x1="108.63"
       y1="73.25"
       x2="314.94"
       y2="73.25"
       gradientUnits="userSpaceOnUse">
      <stop
         offset="0"
         stop-color="#fff"
         id="stop3692" />
      <stop
         offset="0"
         stop-color="#f7d9db"
         id="stop3694" />
      <stop
         offset=".13"
         stop-color="#eeaeb1"
         id="stop3696" />
      <stop
         offset=".22"
         stop-color="#e6888c"
         id="stop3698" />
      <stop
         offset=".31"
         stop-color="#df676d"
         id="stop3700" />
      <stop
         offset=".4"
         stop-color="#da4d53"
         id="stop3702" />
      <stop
         offset=".5"
         stop-color="#d63940"
         id="stop3704" />
      <stop
         offset=".62"
         stop-color="#d32a32"
         id="stop3706" />
      <stop
         offset=".76"
         stop-color="#d1222a"
         id="stop3708" />
      <stop
         offset="1"
         stop-color="#d12028"
         id="stop3710" />
    </linearGradient>
    <linearGradient
       id="linear-gradient-2"
       x1="108.25"
       y1="64.48"
       x2="258.97"
       y2="64.48"
       xlink:href="#linearGradient4829" />
    <linearGradient
       id="linear-gradient-3"
       x1="107.87"
       y1="70.18"
       x2="250.85"
       y2="70.18"
       xlink:href="#linearGradient4807" />
    <linearGradient
       id="linear-gradient-4"
       x1="56.7"
       y1="138.96"
       x2="56.7"
       y2="135.13"
       gradientUnits="userSpaceOnUse">
      <stop
         offset="0"
         stop-color="#484d7b"
         id="stop3715" />
      <stop
         offset=".11"
         stop-color="#595e8e"
         id="stop3717" />
      <stop
         offset=".26"
         stop-color="#6b70a2"
         id="stop3719" />
      <stop
         offset=".44"
         stop-color="#787eb1"
         id="stop3721" />
      <stop
         offset=".65"
         stop-color="#7f85b9"
         id="stop3723" />
      <stop
         offset="1"
         stop-color="#8288bc"
         id="stop3725" />
    </linearGradient>
    <linearGradient
       id="linear-gradient-5"
       x1="49.27"
       y1="106.46"
       x2="49.27"
       y2="103.96"
       xlink:href="#linear-gradient-4" />
    <linearGradient
       id="linear-gradient-6"
       x1="51.1"
       y1="134.27"
       x2="51.1"
       y2="130.44"
       xlink:href="#linear-gradient-4" />
    <linearGradient
       id="linear-gradient-7"
       x1="48.89"
       y1="113.51"
       x2="48.89"
       y2="111.03"
       xlink:href="#linear-gradient-4" />
    <linearGradient
       id="linear-gradient-8"
       x1="68.57"
       y1="143.99"
       x2="68.57"
       y2="140.16"
       xlink:href="#linear-gradient-4" />
    <linearGradient
       id="linear-gradient-9"
       x1="74.94"
       y1="78.96"
       x2="74.94"
       y2="77.09"
       xlink:href="#linear-gradient-4" />
    <linearGradient
       id="linear-gradient-10"
       x1="67.43"
       y1="81.37"
       x2="67.43"
       y2="80.06"
       xlink:href="#linear-gradient-4" />
    <linearGradient
       id="linear-gradient-11"
       x1="81.76"
       y1="77.18"
       x2="81.76"
       y2="76.84"
       xlink:href="#linear-gradient-4" />
    <linearGradient
       id="linear-gradient-12"
       x1="64.17"
       y1="81.86"
       x2="64.17"
       y2="80.54"
       xlink:href="#linear-gradient-4" />
    <linearGradient
       id="linear-gradient-13"
       x1="64.27"
       y1="83.36"
       x2="64.27"
       y2="82.88"
       xlink:href="#linear-gradient-4" />
    <linearGradient
       id="linear-gradient-14"
       x1="61.12"
       y1="84.23"
       x2="61.12"
       y2="82.88"
       xlink:href="#linear-gradient-4" />
    <linearGradient
       id="linear-gradient-15"
       x1="59.07"
       y1="86.6"
       x2="59.07"
       y2="85.25"
       xlink:href="#linear-gradient-4" />
    <linearGradient
       id="linear-gradient-16"
       x1="54.6"
       y1="88.97"
       x2="54.6"
       y2="87.62"
       xlink:href="#linear-gradient-4" />
    <linearGradient
       id="linear-gradient-17"
       x1="58.56"
       y1="88.97"
       x2="58.56"
       y2="87.62"
       xlink:href="#linear-gradient-4" />
    <linearGradient
       id="linear-gradient-18"
       x1="55.98"
       y1="91.34"
       x2="55.98"
       y2="89.95"
       xlink:href="#linear-gradient-4" />
    <linearGradient
       id="linear-gradient-19"
       x1="77.98"
       y1="150.33"
       x2="77.98"
       y2="145.64"
       xlink:href="#linear-gradient-4" />
    <linearGradient
       id="linear-gradient-20"
       x1="49.75"
       y1="102.93"
       x2="49.75"
       y2="100.88"
       xlink:href="#linear-gradient-4" />
    <linearGradient
       id="linear-gradient-21"
       x1="50.5"
       y1="99.86"
       x2="50.5"
       y2="97.81"
       xlink:href="#linear-gradient-4" />
    <linearGradient
       id="linear-gradient-22"
       x1="51.53"
       y1="96.78"
       x2="51.53"
       y2="95.08"
       xlink:href="#linear-gradient-4" />
    <linearGradient
       id="linear-gradient-23"
       x1="52.83"
       y1="94.06"
       x2="52.83"
       y2="92.36"
       xlink:href="#linear-gradient-4" />
    <linearGradient
       id="linear-gradient-24"
       x1="51.18"
       y1="91.34"
       x2="51.18"
       y2="90.75"
       xlink:href="#linear-gradient-4" />
    <linearGradient
       id="linear-gradient-25"
       x1="48.9"
       y1="109.99"
       x2="48.9"
       y2="107.49"
       xlink:href="#linear-gradient-4" />
    <linearGradient
       id="linear-gradient-26"
       x1="48.46"
       y1="117.05"
       x2="48.46"
       y2="114.55"
       xlink:href="#linear-gradient-4" />
    <linearGradient
       id="linear-gradient-27"
       x1="47.68"
       y1="121.17"
       x2="47.68"
       y2="118"
       xlink:href="#linear-gradient-4" />
    <linearGradient
       id="linear-gradient-28"
       x1="49.03"
       y1="125.29"
       x2="49.03"
       y2="122.2"
       xlink:href="#linear-gradient-4" />
    <linearGradient
       id="linear-gradient-29"
       x1="50.07"
       y1="129.41"
       x2="50.07"
       y2="126.32"
       xlink:href="#linear-gradient-4" />
    <linearGradient
       id="linear-gradient-30"
       x1="59.25"
       y1="134.27"
       x2="59.25"
       y2="130.44"
       xlink:href="#linear-gradient-4" />
    <linearGradient
       id="linear-gradient-31"
       x1="59.23"
       y1="129.41"
       x2="59.23"
       y2="126.32"
       xlink:href="#linear-gradient-4" />
    <linearGradient
       id="linear-gradient-32"
       x1="60.05"
       y1="143.79"
       x2="60.05"
       y2="140.16"
       xlink:href="#linear-gradient-4" />
    <linearGradient
       id="linear-gradient-33"
       x1="69.02"
       y1="139.13"
       x2="69.02"
       y2="137.63"
       xlink:href="#linear-gradient-4" />
    <linearGradient
       id="linear-gradient-34"
       x1="68.55"
       y1="148.21"
       x2="68.55"
       y2="145.01"
       xlink:href="#linear-gradient-4" />
  </defs>
  <polyline
     class="cls-34"
     points="108.63 86.4 183.95 86.4 208.5 60.11 314.94 60.11"
     id="polyline3760"
     style="stroke:url(#linear-gradient)"
     transform="translate(-1.8176901,-0.65510899)" />
  <polyline
     class="cls-35"
     points="108.25 78.6 178.47 78.6 205.38 50.37 258.97 50.37"
     id="polyline3762"
     style="stroke:url(#linear-gradient-2)"
     transform="translate(-0.98301649,-0.01796431)" />
  <line
     class="cls-36"
     x1="250.85001"
     y1="69.863785"
     x2="107.87"
     y2="69.863785"
     id="line3764"
     style="stroke:url(#linear-gradient-3)" />
  <path
     class="cls-33"
     d="M140.38,93.52c3.77,0,7.07.42,9.89,1.24,2.82.83,5.09,1.7,6.81,2.62s2.76,1.53,3.13,1.84l-6.63,11.09c-.49-.37-1.33-.9-2.51-1.61-1.18-.71-2.58-1.34-4.19-1.89-1.61-.55-3.29-.83-5.04-.83-2.36,0-4.27.42-5.73,1.27-1.46.84-2.19,2.09-2.19,3.75,0,1.14.39,2.16,1.17,3.06.78.91,1.98,1.76,3.59,2.58,1.61.81,3.66,1.7,6.14,2.65,2.27.83,4.4,1.81,6.4,2.95,1.99,1.14,3.75,2.48,5.27,4.03s2.72,3.34,3.61,5.36,1.34,4.33,1.34,6.9c0,3.07-.63,5.73-1.89,7.99s-2.97,4.12-5.13,5.59c-2.16,1.47-4.62,2.57-7.36,3.29-2.75.72-5.59,1.08-8.54,1.08-4.17,0-7.91-.48-11.21-1.43-3.3-.95-5.96-1.98-7.99-3.08-2.03-1.11-3.24-1.84-3.64-2.21l6.86-11.55c.37.28,1.08.72,2.14,1.33,1.06.61,2.35,1.25,3.89,1.91,1.53.66,3.17,1.22,4.9,1.68,1.73.46,3.44.69,5.13.69,2.82,0,4.94-.54,6.35-1.63,1.41-1.09,2.12-2.52,2.12-4.3,0-1.32-.45-2.5-1.34-3.54s-2.22-2.03-4-2.97c-1.78-.93-4-1.92-6.67-2.97-2.67-1.07-5.16-2.38-7.48-3.91-2.32-1.53-4.2-3.45-5.64-5.75-1.44-2.3-2.16-5.15-2.16-8.56s.96-6.36,2.88-8.86,4.45-4.43,7.59-5.78c3.14-1.35,6.51-2.03,10.1-2.03Z"
     id="path3766" />
  <path
     class="cls-33"
     d="M203.48,142.86c2.82,0,5.39-.41,7.71-1.24,2.32-.83,4.04-1.64,5.18-2.44l5.89,11.69c-1.44,1.23-3.91,2.47-7.39,3.73-3.48,1.26-7.62,1.89-12.4,1.89-4.48,0-8.68-.78-12.61-2.35s-7.39-3.77-10.38-6.6-5.34-6.17-7.04-9.99c-1.7-3.82-2.55-7.97-2.55-12.45s.84-8.64,2.53-12.49c1.69-3.85,4.03-7.2,7.02-10.06,2.99-2.85,6.46-5.07,10.4-6.65,3.94-1.58,8.15-2.37,12.63-2.37,4.79,0,8.92.63,12.4,1.89,3.48,1.26,5.94,2.5,7.39,3.73l-5.89,11.69c-1.14-.83-2.86-1.65-5.18-2.46-2.32-.81-4.89-1.22-7.71-1.22-3.13,0-5.86.48-8.19,1.45-2.33.97-4.28,2.29-5.85,3.98-1.57,1.69-2.73,3.59-3.5,5.71-.77,2.12-1.15,4.34-1.15,6.67s.38,4.61,1.15,6.74c.77,2.13,1.93,4.04,3.5,5.73,1.57,1.69,3.51,3.01,5.85,3.98,2.33.97,5.06,1.45,8.19,1.45Z"
     id="path3768" />
  <path
     class="cls-33"
     d="M251.89,94.62h13.67l23.98,60.75h-14.68l-4.42-12.2h-23.38l-4.46,12.2h-14.73l24.02-60.75ZM251.66,131.12h14.22l-7.04-19.93h-.14l-7.04,19.93Z"
     id="path3770" />
  <path
     class="cls-33"
     d="M296.31,94.62h13.76v48.69h22.05v12.06h-35.81v-60.75Z"
     id="path3772" />
  <path
     class="cls-33"
     d="M362.31,94.62h13.67l23.98,60.75h-14.68l-4.42-12.2h-23.38l-4.47,12.2h-14.73l24.03-60.75ZM362.08,131.12h14.22l-7.04-19.93h-.14l-7.04,19.93Z"
     id="path3774" />
  <path
     class="cls-33"
     d="M411.78,106.68h-14.5v-12.06h42.71v12.06h-14.45v48.69h-13.76v-48.69Z"
     id="path3776" />
  <path
     class="cls-33"
     d="M444.69,124.95c0-4.42.78-8.54,2.35-12.36,1.57-3.82,3.76-7.16,6.58-10.01,2.82-2.85,6.14-5.08,9.94-6.67s7.92-2.39,12.34-2.39,8.61.8,12.4,2.39c3.79,1.6,7.09,3.82,9.89,6.67,2.81,2.85,4.99,6.19,6.54,10.01,1.55,3.82,2.32,7.94,2.32,12.36s-.75,8.58-2.26,12.4c-1.5,3.82-3.65,7.16-6.44,10.03-2.79,2.87-6.09,5.1-9.9,6.7-3.8,1.6-7.99,2.39-12.56,2.39s-8.91-.8-12.73-2.39c-3.82-1.59-7.11-3.83-9.87-6.7-2.76-2.87-4.89-6.21-6.37-10.03-1.49-3.82-2.23-7.96-2.23-12.4ZM459,124.95c0,3.47.71,6.6,2.14,9.41,1.43,2.81,3.41,5.04,5.94,6.7,2.53,1.66,5.47,2.49,8.81,2.49s6.28-.83,8.81-2.49c2.53-1.66,4.51-3.89,5.94-6.7,1.43-2.81,2.14-5.94,2.14-9.41s-.71-6.6-2.14-9.39c-1.43-2.79-3.41-5.02-5.94-6.7-2.53-1.67-5.47-2.51-8.81-2.51s-6.28.84-8.81,2.51c-2.53,1.67-4.51,3.91-5.94,6.7-1.43,2.79-2.14,5.92-2.14,9.39Z"
     id="path3778" />
  <path
     class="cls-33"
     d="M516.21,94.62h24.76c3.53,0,6.67.74,9.43,2.21s4.95,3.6,6.56,6.37c1.61,2.78,2.42,6.08,2.42,9.92s-.68,6.97-2.05,9.41c-1.37,2.44-3,4.26-4.9,5.48s-3.67,1.94-5.29,2.19l14.77,25.17h-15.46l-13.16-24.12h-3.31v24.12h-13.76v-60.75ZM529.97,121.73h6.08c2.45,0,4.6-.6,6.44-1.8,1.84-1.2,2.76-3.31,2.76-6.35s-.91-5.15-2.72-6.33c-1.81-1.18-3.94-1.77-6.4-1.77h-6.17v16.25Z"
     id="path3780" />
  <path
     class="cls-33"
     d="M48.55,181.37c-.47,0-.93-.05-1.35-.16s-.82-.27-1.17-.5c-.26-.15-.39-.33-.39-.54,0-.09.02-.22.06-.4.04-.17.1-.33.18-.47.08-.14.17-.21.27-.21s.26.06.47.18c.21.12.49.24.81.36.33.12.71.18,1.15.18.5,0,.91-.14,1.25-.42.34-.28.51-.71.51-1.28,0-.4-.09-.72-.27-.97-.18-.25-.42-.47-.72-.64-.3-.17-.62-.35-.96-.53-.44-.21-.85-.46-1.23-.73-.38-.27-.69-.61-.93-1.02-.24-.41-.36-.94-.36-1.6,0-.69.15-1.28.46-1.79.31-.5.72-.89,1.25-1.15.53-.27,1.13-.4,1.81-.4.36,0,.72.04,1.09.13.37.09.69.22.97.37.09.06.16.11.2.17s.07.13.07.24c0,.09-.02.22-.05.39-.03.17-.08.32-.14.47-.06.14-.14.21-.23.21-.12,0-.35-.07-.68-.21-.33-.14-.74-.21-1.24-.21s-.94.14-1.27.43c-.33.29-.49.68-.49,1.19,0,.4.1.72.29.97.19.25.44.46.74.63.3.17.63.35.98.52.43.24.83.49,1.21.76.38.27.68.62.91,1.03.23.42.35.95.35,1.61,0,1.04-.32,1.87-.97,2.49s-1.51.93-2.6.93Z"
     id="path3782" />
  <path
     class="cls-33"
     d="M55.88,181.39c-.32,0-.62-.07-.92-.2s-.55-.35-.74-.67c-.2-.32-.3-.76-.3-1.32v-5.35h-.59c-.26,0-.39-.2-.39-.61v-.22c0-.41.13-.61.39-.61h.59l.22-1.73c.04-.28.25-.42.63-.42h.25c.24,0,.41.04.51.11.1.07.15.18.15.31v1.73h1.02c.26,0,.39.2.39.61v.22c0,.41-.13.61-.39.61h-1.02v5.14c0,.36.04.61.12.74.08.13.23.2.46.2.18,0,.32-.01.41-.04.09-.03.16-.04.22-.04.09,0,.16.06.2.19.04.12.08.26.1.42s.03.26.03.33c0,.12-.07.23-.22.32s-.32.16-.53.2-.4.07-.58.07Z"
     id="path3784" />
  <path
     class="cls-33"
     d="M59.63,181.3c-.52,0-.78-.14-.78-.42v-5.8c0-.71-.03-1.23-.08-1.55-.06-.32-.08-.55-.08-.68,0-.1.08-.18.23-.25.15-.06.33-.1.52-.13s.35-.03.47-.03c.17,0,.29.08.36.25s.15.48.24.94c.24-.39.54-.71.91-.96.37-.24.72-.36,1.06-.36.21,0,.36.05.43.15.07.1.11.25.11.46,0,.16-.02.33-.05.52-.03.19-.08.35-.14.48s-.14.2-.23.2-.19-.02-.3-.06c-.11-.04-.26-.06-.47-.06-.27,0-.52.08-.74.24-.22.16-.38.36-.47.61v6.04c0,.28-.27.42-.8.42h-.19Z"
     id="path3786" />
  <path
     class="cls-33"
     d="M67.23,181.39c-2.36,0-3.54-1.5-3.54-4.48,0-1.57.3-2.73.89-3.48.59-.75,1.42-1.12,2.5-1.12s1.8.39,2.29,1.16c.49.77.73,1.88.73,3.31,0,.52-.22.78-.66.78h-3.94c.02.84.18,1.44.48,1.83.3.38.75.58,1.34.58.38,0,.72-.05,1.02-.15.29-.1.54-.2.73-.3.19-.1.32-.15.39-.15.09,0,.17.06.23.17s.11.24.14.39c.03.15.05.27.05.37,0,.15-.13.31-.39.48-.26.17-.59.32-1,.45-.41.12-.83.19-1.27.19ZM65.51,176.24h2.91c0-1.69-.46-2.54-1.37-2.54-.47,0-.85.2-1.12.6s-.41,1.05-.42,1.94Z"
     id="path3788" />
  <path
     class="cls-33"
     d="M72.76,181.3c-.28,0-.48-.04-.59-.11-.11-.07-.17-.18-.17-.31v-5.8c0-.71-.03-1.23-.08-1.55s-.08-.55-.08-.68c0-.1.08-.18.24-.25.16-.06.34-.1.54-.13s.36-.03.47-.03c.17,0,.29.08.35.25s.14.47.23.91c.27-.37.6-.68.98-.92.38-.24.81-.36,1.29-.36.61,0,1.13.19,1.56.56.43.37.64.97.64,1.78v6.24c0,.13-.06.24-.18.31-.12.07-.31.11-.58.11h-.24c-.28,0-.48-.04-.6-.11-.12-.07-.18-.18-.18-.31v-5.89c0-.38-.09-.68-.26-.89-.17-.21-.46-.31-.85-.31-.25,0-.47.06-.68.17-.2.11-.37.25-.51.41-.13.16-.23.3-.29.42v6.09c0,.13-.06.24-.17.31-.11.07-.31.11-.59.11h-.24Z"
     id="path3790" />
  <path
     class="cls-33"
     d="M82.8,184.85c-1,0-1.76-.18-2.28-.54-.52-.36-.78-.91-.78-1.66,0-.47.12-.89.35-1.26.24-.37.56-.65.98-.85v-.05c-.4-.27-.59-.68-.59-1.23,0-.35.07-.65.21-.91.14-.26.34-.48.58-.66-.44-.22-.76-.55-.96-.97s-.3-.91-.3-1.46c0-.91.25-1.63.75-2.16.5-.52,1.21-.79,2.14-.79.29,0,.59.04.88.12h2.44c.25,0,.37.19.37.58v.22c0,.36-.12.54-.35.54-.18,0-.34,0-.48,0-.14,0-.27-.01-.38-.03l-.03.03c.27.43.41.93.41,1.51,0,.82-.23,1.49-.7,2.01s-1.12.79-1.97.82c-.34.01-.61.09-.8.24s-.3.37-.3.68c0,.28.1.48.29.6.19.12.44.2.73.25.3.05.62.1.96.16.62.1,1.15.32,1.59.66s.66.87.66,1.59c0,.82-.29,1.46-.88,1.91-.59.45-1.43.68-2.54.68ZM82.95,183.53c1.15,0,1.73-.37,1.73-1.12,0-.32-.08-.55-.25-.7s-.39-.26-.65-.32c-.26-.06-.55-.11-.85-.15s-.6-.1-.88-.18c-.21.12-.39.3-.53.52s-.21.49-.21.8c0,.77.55,1.15,1.66,1.15ZM82.88,176.77c.36,0,.67-.1.94-.3.26-.2.4-.61.4-1.24,0-.66-.13-1.11-.4-1.32-.27-.21-.58-.32-.94-.32s-.67.11-.93.32c-.26.21-.39.65-.39,1.32,0,.62.13,1.03.39,1.24.26.2.57.3.93.3Z"
     id="path3792" />
  <path
     class="cls-33"
     d="M90.09,181.39c-.32,0-.62-.07-.92-.2s-.55-.35-.74-.67-.3-.76-.3-1.32v-5.35h-.59c-.26,0-.39-.2-.39-.61v-.22c0-.41.13-.61.39-.61h.59l.22-1.73c.04-.28.25-.42.63-.42h.25c.24,0,.41.04.51.11.1.07.15.18.15.31v1.73h1.02c.26,0,.39.2.39.61v.22c0,.41-.13.61-.39.61h-1.02v5.14c0,.36.04.61.12.74s.23.2.46.2c.18,0,.31-.01.41-.04.09-.03.16-.04.22-.04.09,0,.16.06.2.19.04.12.08.26.1.42.02.15.03.26.03.33,0,.12-.07.23-.22.32s-.33.16-.53.2c-.21.04-.4.07-.58.07Z"
     id="path3794" />
  <path
     class="cls-33"
     d="M93.83,181.3c-.28,0-.48-.04-.59-.11-.11-.07-.17-.18-.17-.31v-11.91c0-.29.25-.44.74-.44h.25c.51,0,.76.15.76.44v4.48c.23-.3.53-.57.91-.8.38-.23.8-.35,1.26-.35.61,0,1.13.19,1.56.56.43.37.64.97.64,1.78v6.24c0,.13-.06.24-.18.31-.12.07-.31.11-.58.11h-.24c-.28,0-.48-.04-.6-.11-.12-.07-.18-.18-.18-.31v-5.89c0-.38-.09-.68-.26-.89-.17-.21-.46-.31-.85-.31-.25,0-.47.06-.68.17-.2.11-.37.25-.51.41-.13.16-.23.3-.29.42v6.09c0,.13-.06.24-.17.31-.11.07-.31.11-.59.11h-.24Z"
     id="path3796" />
  <path
     class="cls-33"
     d="M104.66,181.39c-2.36,0-3.54-1.5-3.54-4.48,0-1.57.3-2.73.89-3.48.59-.75,1.42-1.12,2.5-1.12s1.8.39,2.29,1.16c.49.77.74,1.88.74,3.31,0,.52-.22.78-.66.78h-3.94c.02.84.18,1.44.48,1.83.3.38.75.58,1.35.58.38,0,.72-.05,1.02-.15.29-.1.54-.2.73-.3s.32-.15.39-.15c.09,0,.17.06.23.17s.11.24.14.39c.03.15.05.27.05.37,0,.15-.13.31-.39.48-.26.17-.59.32-1,.45s-.83.19-1.27.19ZM102.93,176.24h2.91c0-1.69-.46-2.54-1.37-2.54-.47,0-.85.2-1.12.6-.27.4-.41,1.05-.42,1.94Z"
     id="path3798" />
  <path
     class="cls-33"
     d="M110.19,181.3c-.28,0-.48-.04-.59-.11-.11-.07-.17-.18-.17-.31v-5.8c0-.71-.03-1.23-.08-1.55-.06-.32-.08-.55-.08-.68,0-.1.08-.18.24-.25.16-.06.34-.1.54-.13.2-.02.36-.03.47-.03.17,0,.28.08.35.25s.14.47.23.91c.27-.37.6-.68.98-.92.38-.24.81-.36,1.29-.36.61,0,1.13.19,1.56.56.43.37.64.97.64,1.78v6.24c0,.13-.06.24-.18.31-.12.07-.31.11-.58.11h-.24c-.28,0-.48-.04-.6-.11-.12-.07-.18-.18-.18-.31v-5.89c0-.38-.09-.68-.26-.89-.18-.21-.46-.31-.86-.31-.25,0-.47.06-.68.17-.2.11-.37.25-.51.41-.13.16-.23.3-.29.42v6.09c0,.13-.06.24-.17.31-.11.07-.31.11-.59.11h-.24Z"
     id="path3800" />
  <path
     class="cls-33"
     d="M118.77,171.3c-.33,0-.56-.04-.69-.11-.13-.07-.2-.18-.2-.31v-1.1c0-.14.07-.24.2-.31.14-.07.37-.11.69-.11s.54.04.68.11c.13.07.2.18.2.31v1.1c0,.13-.07.24-.2.31-.13.07-.36.11-.68.11ZM118.64,181.3c-.28,0-.48-.04-.59-.11-.11-.07-.17-.18-.17-.31v-8.07c0-.13.06-.24.17-.31.11-.07.31-.11.59-.11h.24c.28,0,.48.04.59.11.11.07.17.18.17.31v8.07c0,.13-.06.24-.17.31-.11.07-.31.11-.59.11h-.24Z"
     id="path3802" />
  <path
     class="cls-33"
     d="M122.76,181.3c-.28,0-.48-.04-.59-.11-.11-.07-.17-.18-.17-.31v-5.8c0-.71-.03-1.23-.08-1.55-.06-.32-.08-.55-.08-.68,0-.1.08-.18.24-.25.16-.06.34-.1.54-.13.2-.02.36-.03.47-.03.17,0,.28.08.35.25s.14.47.23.91c.27-.37.6-.68.98-.92.38-.24.81-.36,1.29-.36.61,0,1.13.19,1.56.56.43.37.64.97.64,1.78v6.24c0,.13-.06.24-.18.31-.12.07-.31.11-.58.11h-.24c-.28,0-.48-.04-.6-.11-.12-.07-.18-.18-.18-.31v-5.89c0-.38-.09-.68-.26-.89-.18-.21-.46-.31-.86-.31-.25,0-.47.06-.68.17-.2.11-.37.25-.51.41-.13.16-.23.3-.29.42v6.09c0,.13-.06.24-.17.31-.11.07-.31.11-.59.11h-.24Z"
     id="path3804" />
  <path
     class="cls-33"
     d="M132.8,184.85c-1,0-1.76-.18-2.28-.54-.52-.36-.78-.91-.78-1.66,0-.47.12-.89.35-1.26.24-.37.56-.65.98-.85v-.05c-.4-.27-.59-.68-.59-1.23,0-.35.07-.65.21-.91.14-.26.34-.48.58-.66-.44-.22-.76-.55-.96-.97s-.3-.91-.3-1.46c0-.91.25-1.63.75-2.16.5-.52,1.21-.79,2.14-.79.29,0,.59.04.88.12h2.44c.25,0,.37.19.37.58v.22c0,.36-.12.54-.35.54-.18,0-.34,0-.48,0-.14,0-.27-.01-.38-.03l-.03.03c.27.43.41.93.41,1.51,0,.82-.23,1.49-.7,2.01s-1.12.79-1.97.82c-.34.01-.61.09-.8.24s-.3.37-.3.68c0,.28.1.48.29.6.19.12.44.2.73.25.3.05.62.1.96.16.62.1,1.15.32,1.59.66s.66.87.66,1.59c0,.82-.29,1.46-.88,1.91-.59.45-1.43.68-2.54.68ZM132.95,183.53c1.15,0,1.73-.37,1.73-1.12,0-.32-.08-.55-.25-.7s-.39-.26-.65-.32c-.26-.06-.55-.11-.85-.15s-.6-.1-.88-.18c-.21.12-.39.3-.53.52s-.21.49-.21.8c0,.77.55,1.15,1.66,1.15ZM132.88,176.77c.36,0,.67-.1.94-.3.26-.2.4-.61.4-1.24,0-.66-.13-1.11-.4-1.32-.27-.21-.58-.32-.94-.32s-.67.11-.93.32c-.26.21-.39.65-.39,1.32,0,.62.13,1.03.39,1.24.26.2.57.3.93.3Z"
     id="path3806" />
  <path
     class="cls-33"
     d="M141.24,181.27c-.37,0-.56-.19-.56-.56v-10.73c0-.37.19-.56.56-.56h2.74c1.41,0,2.48.48,3.2,1.43s1.08,2.44,1.08,4.47-.36,3.51-1.08,4.48-1.79,1.46-3.2,1.46h-2.74ZM142.53,179.71h1.46c.84,0,1.45-.35,1.84-1.06.39-.7.58-1.81.58-3.32s-.2-2.61-.58-3.31-1-1.04-1.84-1.04h-1.46v8.73Z"
     id="path3808" />
  <path
     class="cls-33"
     d="M151.12,171.3c-.33,0-.56-.04-.69-.11-.14-.07-.2-.18-.2-.31v-1.1c0-.14.07-.24.2-.31.13-.07.37-.11.69-.11s.54.04.68.11c.13.07.2.18.2.31v1.1c0,.13-.07.24-.2.31-.14.07-.36.11-.68.11ZM150.99,181.3c-.28,0-.48-.04-.59-.11-.11-.07-.17-.18-.17-.31v-8.07c0-.13.06-.24.17-.31.11-.07.31-.11.59-.11h.24c.28,0,.48.04.59.11.11.07.17.18.17.31v8.07c0,.13-.06.24-.17.31-.11.07-.31.11-.59.11h-.24Z"
     id="path3810" />
  <path
     class="cls-33"
     d="M156.71,184.85c-1,0-1.76-.18-2.28-.54-.52-.36-.78-.91-.78-1.66,0-.47.12-.89.35-1.26.24-.37.56-.65.98-.85v-.05c-.4-.27-.59-.68-.59-1.23,0-.35.07-.65.21-.91.14-.26.34-.48.58-.66-.44-.22-.76-.55-.96-.97s-.3-.91-.3-1.46c0-.91.25-1.63.75-2.16.5-.52,1.21-.79,2.14-.79.29,0,.59.04.88.12h2.44c.25,0,.37.19.37.58v.22c0,.36-.12.54-.35.54-.18,0-.34,0-.48,0-.14,0-.27-.01-.38-.03l-.03.03c.27.43.41.93.41,1.51,0,.82-.23,1.49-.7,2.01s-1.12.79-1.97.82c-.34.01-.61.09-.8.24s-.3.37-.3.68c0,.28.1.48.29.6.19.12.44.2.73.25.3.05.62.1.96.16.62.1,1.15.32,1.59.66s.66.87.66,1.59c0,.82-.29,1.46-.88,1.91-.59.45-1.43.68-2.54.68ZM156.86,183.53c1.15,0,1.73-.37,1.73-1.12,0-.32-.08-.55-.25-.7s-.39-.26-.65-.32c-.26-.06-.55-.11-.85-.15s-.6-.1-.88-.18c-.21.12-.39.3-.53.52s-.21.49-.21.8c0,.77.55,1.15,1.66,1.15ZM156.79,176.77c.36,0,.67-.1.94-.3.26-.2.4-.61.4-1.24,0-.66-.13-1.11-.4-1.32-.27-.21-.58-.32-.94-.32s-.67.11-.93.32c-.26.21-.39.65-.39,1.32,0,.62.13,1.03.39,1.24.26.2.57.3.93.3Z"
     id="path3812" />
  <path
     class="cls-33"
     d="M162.77,171.3c-.33,0-.56-.04-.69-.11-.13-.07-.2-.18-.2-.31v-1.1c0-.14.07-.24.2-.31.14-.07.37-.11.69-.11s.54.04.68.11c.13.07.2.18.2.31v1.1c0,.13-.07.24-.2.31-.13.07-.36.11-.68.11ZM162.63,181.3c-.28,0-.48-.04-.59-.11-.11-.07-.17-.18-.17-.31v-8.07c0-.13.06-.24.17-.31.11-.07.31-.11.59-.11h.24c.28,0,.48.04.59.11.11.07.17.18.17.31v8.07c0,.13-.06.24-.17.31-.11.07-.31.11-.59.11h-.24Z"
     id="path3814" />
  <path
     class="cls-33"
     d="M168.13,181.39c-.32,0-.62-.07-.92-.2s-.55-.35-.74-.67c-.2-.32-.3-.76-.3-1.32v-5.35h-.59c-.26,0-.39-.2-.39-.61v-.22c0-.41.13-.61.39-.61h.59l.22-1.73c.04-.28.25-.42.63-.42h.25c.24,0,.41.04.51.11.1.07.15.18.15.31v1.73h1.02c.26,0,.39.2.39.61v.22c0,.41-.13.61-.39.61h-1.02v5.14c0,.36.04.61.12.74.08.13.23.2.46.2.18,0,.32-.01.41-.04.09-.03.16-.04.22-.04.09,0,.16.06.2.19.04.12.08.26.1.42s.03.26.03.33c0,.12-.07.23-.22.32s-.32.16-.53.2-.4.07-.58.07Z"
     id="path3816" />
  <path
     class="cls-33"
     d="M173.07,181.39c-.74,0-1.33-.23-1.76-.69s-.64-1.11-.64-1.95c0-.77.19-1.38.58-1.83.38-.45.91-.77,1.57-.97.67-.2,1.42-.3,2.27-.3v-.66c0-.35-.1-.65-.29-.89-.19-.24-.54-.36-1.03-.36-.42,0-.79.05-1.12.14-.33.1-.61.19-.82.28s-.36.13-.44.13-.15-.06-.21-.19-.11-.27-.13-.42c-.03-.16-.04-.29-.04-.39,0-.12.14-.26.42-.41.28-.15.64-.29,1.08-.41.44-.12.89-.18,1.34-.18,1,0,1.76.24,2.27.72s.76,1.13.76,1.95v3.67c0,.71.03,1.22.08,1.54.06.32.08.53.08.64s-.08.2-.25.27-.34.12-.53.14-.35.04-.46.04c-.17,0-.29-.08-.36-.23-.07-.15-.13-.42-.2-.79-.25.32-.55.58-.9.79-.35.21-.77.32-1.27.32ZM173.51,180c.33,0,.63-.08.9-.25.27-.16.5-.4.68-.7v-2.13c-.97,0-1.65.13-2.05.39-.4.26-.59.72-.59,1.37,0,.42.09.74.26.97s.44.35.8.35Z"
     id="path3818" />
  <path
     class="cls-33"
     d="M181.17,181.39c-.32,0-.62-.07-.92-.2s-.55-.35-.74-.67c-.2-.32-.3-.76-.3-1.32v-10.24c0-.13.06-.24.17-.32.11-.08.31-.12.59-.12h.24c.28,0,.48.04.59.12.11.08.17.19.17.32v10.03c0,.36.04.61.12.74.08.13.23.2.46.2.18,0,.32-.01.41-.04.09-.03.16-.04.22-.04.09,0,.16.06.2.19.04.12.08.26.1.42s.03.26.03.33c0,.12-.07.23-.22.32s-.32.16-.53.2-.4.07-.58.07Z"
     id="path3820" />
  <path
     class="cls-33"
     d="M187.44,181.3c-.28,0-.48-.04-.6-.11-.12-.07-.18-.18-.18-.31v-11.07c0-.13.06-.24.18-.31.12-.07.32-.11.6-.11h.27c.28,0,.49.04.61.11.12.07.19.18.19.31v4.6h3.67v-4.6c0-.13.06-.24.19-.31.12-.07.33-.11.61-.11h.27c.28,0,.48.04.6.11.12.07.18.18.18.31v11.07c0,.13-.06.24-.18.31-.12.07-.32.11-.6.11h-.27c-.28,0-.49-.04-.61-.11-.12-.07-.19-.18-.19-.31v-4.91h-3.67v4.91c0,.13-.06.24-.19.31-.12.07-.33.11-.61.11h-.27Z"
     id="path3822" />
  <path
     class="cls-33"
     d="M198.69,181.4c-.7,0-1.24-.2-1.62-.61-.38-.41-.57-.98-.57-1.71v-6.26c0-.28.25-.42.76-.42h.25c.51,0,.76.14.76.42v5.97c0,.37.08.65.23.84.15.19.41.28.77.28.34,0,.64-.09.91-.28.26-.19.48-.43.65-.72v-6.09c0-.28.25-.42.74-.42h.27c.5,0,.74.14.74.42v5.8c0,.71.03,1.22.08,1.54.06.32.08.53.08.64s-.08.2-.24.27c-.16.07-.34.12-.54.14s-.36.04-.47.04c-.17,0-.29-.08-.35-.25-.06-.16-.14-.47-.23-.9-.26.37-.58.68-.97.92-.39.24-.81.36-1.28.36Z"
     id="path3824" />
  <path
     class="cls-33"
     d="M205.73,181.3c-.28,0-.48-.04-.59-.11-.11-.07-.17-.18-.17-.31v-5.8c0-.71-.03-1.23-.08-1.55-.06-.32-.08-.55-.08-.68,0-.1.08-.18.24-.25.16-.06.34-.1.54-.13.2-.02.36-.03.47-.03.17,0,.28.08.35.25s.14.47.23.91c.26-.37.57-.68.93-.92.36-.24.77-.36,1.23-.36.42,0,.81.1,1.18.31.37.21.63.56.78,1.04.25-.38.56-.7.93-.97.37-.26.8-.39,1.27-.39.59,0,1.09.19,1.5.56.41.37.62.97.62,1.78v6.24c0,.13-.06.24-.18.31-.12.07-.31.11-.58.11h-.24c-.28,0-.48-.04-.6-.11-.12-.07-.18-.18-.18-.31v-5.89c0-.38-.08-.68-.24-.89-.16-.21-.42-.31-.77-.31-.32,0-.59.1-.84.31-.24.21-.43.43-.55.67v6.11c0,.13-.06.24-.17.31-.11.07-.31.11-.59.11h-.24c-.28,0-.48-.04-.59-.11-.11-.07-.17-.18-.17-.31v-5.89c0-.38-.08-.68-.24-.89-.16-.21-.42-.31-.77-.31-.24,0-.45.06-.63.17-.19.11-.34.25-.47.41-.13.16-.22.3-.28.42v6.09c0,.13-.06.24-.17.31-.11.07-.31.11-.59.11h-.24Z"
     id="path3826" />
  <path
     class="cls-33"
     d="M219.35,181.39c-.74,0-1.33-.23-1.76-.69s-.64-1.11-.64-1.95c0-.77.19-1.38.58-1.83.38-.45.91-.77,1.57-.97.67-.2,1.42-.3,2.27-.3v-.66c0-.35-.1-.65-.29-.89-.19-.24-.54-.36-1.03-.36-.42,0-.79.05-1.12.14-.33.1-.61.19-.82.28s-.36.13-.44.13-.15-.06-.21-.19-.11-.27-.13-.42c-.03-.16-.04-.29-.04-.39,0-.12.14-.26.42-.41.28-.15.64-.29,1.08-.41.44-.12.89-.18,1.34-.18,1,0,1.76.24,2.27.72s.76,1.13.76,1.95v3.67c0,.71.03,1.22.08,1.54.06.32.08.53.08.64s-.08.2-.25.27-.34.12-.53.14-.35.04-.46.04c-.17,0-.29-.08-.36-.23-.07-.15-.13-.42-.2-.79-.25.32-.55.58-.9.79-.35.21-.77.32-1.27.32ZM219.79,180c.33,0,.63-.08.9-.25.27-.16.5-.4.68-.7v-2.13c-.97,0-1.65.13-2.05.39-.4.26-.59.72-.59,1.37,0,.42.09.74.26.97s.44.35.8.35Z"
     id="path3828" />
  <path
     class="cls-33"
     d="M226.25,181.3c-.28,0-.48-.04-.59-.11-.11-.07-.17-.18-.17-.31v-5.8c0-.71-.03-1.23-.08-1.55-.06-.32-.08-.55-.08-.68,0-.1.08-.18.24-.25.16-.06.34-.1.54-.13.2-.02.36-.03.47-.03.17,0,.28.08.35.25s.14.47.23.91c.27-.37.6-.68.98-.92.38-.24.81-.36,1.29-.36.61,0,1.13.19,1.56.56.43.37.64.97.64,1.78v6.24c0,.13-.06.24-.18.31-.12.07-.31.11-.58.11h-.24c-.28,0-.48-.04-.6-.11-.12-.07-.18-.18-.18-.31v-5.89c0-.38-.09-.68-.26-.89-.18-.21-.46-.31-.86-.31-.25,0-.47.06-.68.17-.2.11-.37.25-.51.41-.13.16-.23.3-.29.42v6.09c0,.13-.06.24-.17.31-.11.07-.31.11-.59.11h-.24Z"
     id="path3830" />
  <path
     class="cls-33"
     d="M234.83,171.3c-.33,0-.56-.04-.69-.11-.14-.07-.2-.18-.2-.31v-1.1c0-.14.07-.24.2-.31.13-.07.37-.11.69-.11s.54.04.68.11c.13.07.2.18.2.31v1.1c0,.13-.07.24-.2.31-.14.07-.36.11-.68.11ZM234.69,181.3c-.28,0-.48-.04-.59-.11-.11-.07-.17-.18-.17-.31v-8.07c0-.13.06-.24.17-.31.11-.07.31-.11.59-.11h.24c.28,0,.48.04.59.11.11.07.17.18.17.31v8.07c0,.13-.06.24-.17.31-.11.07-.31.11-.59.11h-.24Z"
     id="path3832" />
  <path
     class="cls-33"
     d="M240.19,181.39c-.32,0-.62-.07-.92-.2s-.55-.35-.74-.67-.3-.76-.3-1.32v-5.35h-.59c-.26,0-.39-.2-.39-.61v-.22c0-.41.13-.61.39-.61h.59l.22-1.73c.04-.28.25-.42.63-.42h.25c.24,0,.41.04.51.11.1.07.15.18.15.31v1.73h1.02c.26,0,.39.2.39.61v.22c0,.41-.13.61-.39.61h-1.02v5.14c0,.36.04.61.12.74s.23.2.46.2c.18,0,.31-.01.41-.04.09-.03.16-.04.22-.04.09,0,.16.06.2.19.04.12.08.26.1.42.02.15.03.26.03.33,0,.12-.07.23-.22.32s-.33.16-.53.2c-.21.04-.4.07-.58.07Z"
     id="path3834" />
  <path
     class="cls-33"
     d="M244.07,171.3c-.33,0-.56-.04-.69-.11-.14-.07-.2-.18-.2-.31v-1.1c0-.14.07-.24.2-.31.13-.07.37-.11.69-.11s.54.04.68.11c.13.07.2.18.2.31v1.1c0,.13-.07.24-.2.31-.14.07-.36.11-.68.11ZM243.93,181.3c-.28,0-.48-.04-.59-.11-.11-.07-.17-.18-.17-.31v-8.07c0-.13.06-.24.17-.31.11-.07.31-.11.59-.11h.24c.28,0,.48.04.59.11.11.07.17.18.17.31v8.07c0,.13-.06.24-.17.31-.11.07-.31.11-.59.11h-.24Z"
     id="path3836" />
  <path
     class="cls-33"
     d="M250.45,181.39c-2.36,0-3.54-1.5-3.54-4.48,0-1.57.3-2.73.89-3.48.59-.75,1.42-1.12,2.5-1.12s1.8.39,2.29,1.16c.49.77.74,1.88.74,3.31,0,.52-.22.78-.66.78h-3.94c.02.84.18,1.44.48,1.83.3.38.75.58,1.35.58.38,0,.72-.05,1.02-.15.29-.1.54-.2.73-.3s.32-.15.39-.15c.09,0,.17.06.23.17s.11.24.14.39c.03.15.05.27.05.37,0,.15-.13.31-.39.48-.26.17-.59.32-1,.45s-.83.19-1.27.19ZM248.72,176.24h2.91c0-1.69-.46-2.54-1.37-2.54-.47,0-.85.2-1.12.6-.27.4-.41,1.05-.42,1.94Z"
     id="path3838" />
  <path
     class="cls-33"
     d="M256.96,181.42c-.42,0-.8-.06-1.16-.17s-.64-.25-.86-.41c-.21-.16-.32-.33-.32-.48,0-.1.04-.23.12-.4.08-.16.17-.31.28-.43s.2-.19.28-.19c.04,0,.14.05.27.14.13.1.31.19.52.3.21.1.45.15.74.15.37,0,.66-.09.86-.26.2-.17.3-.44.3-.79,0-.38-.13-.68-.4-.91-.27-.22-.61-.44-1.02-.65-.52-.26-.94-.58-1.27-.95-.33-.37-.49-.9-.49-1.59,0-.76.24-1.36.73-1.81s1.1-.68,1.85-.68c.29,0,.59.03.9.09.3.06.56.16.76.28s.3.26.3.42c0,.1-.03.23-.09.4-.06.16-.14.31-.23.45-.09.13-.17.2-.25.2-.06,0-.19-.06-.4-.19s-.48-.19-.8-.19c-.3,0-.56.08-.76.23-.2.15-.3.37-.3.67,0,.36.13.65.4.86.26.21.57.4.91.58.56.28,1.01.62,1.34,1.02.33.4.5.96.5,1.69,0,.79-.25,1.43-.76,1.9-.51.48-1.15.72-1.93.72Z"
     id="path3840" />
  <path
     class="cls-33"
     d="M266.47,181.39c-.56,0-1.08-.12-1.55-.36-.47-.24-.85-.62-1.13-1.14-.29-.52-.43-1.19-.43-2.01s.17-1.52.51-2.06.73-.88,1.17-1.04v-.07c-.38-.2-.7-.52-.96-.95s-.38-.95-.38-1.57c0-.94.26-1.65.78-2.14.52-.49,1.2-.74,2.03-.74.21,0,.43.02.65.06.22.04.41.1.56.19s.23.2.23.35c0,.1-.02.23-.05.39-.03.16-.08.3-.15.42s-.14.19-.22.19c-.06,0-.15-.03-.29-.08s-.3-.08-.49-.08c-.33,0-.58.09-.77.27-.19.18-.32.4-.39.65-.07.25-.11.5-.11.75,0,.29.05.58.15.87.1.29.26.52.48.71.22.19.5.28.85.28h1.37l.22-1.73c.02-.28.23-.42.61-.42h.32c.41,0,.61.14.61.42v1.73h.9c.25,0,.37.2.37.61v.22c0,.41-.12.61-.37.61h-.9v3.13c0,.43.05.72.15.87.1.15.25.23.44.23.14,0,.24-.01.31-.04.07-.03.13-.04.19-.04.08,0,.15.06.2.19.06.12.1.26.13.42s.04.26.04.31c0,.16-.07.28-.21.36s-.31.15-.52.19c-.2.04-.39.06-.56.06-.27,0-.54-.05-.8-.15-.26-.1-.49-.29-.67-.56-.32.19-.65.36-1.02.5-.36.14-.8.21-1.3.21ZM266.73,179.95c.27,0,.54-.05.81-.16.27-.11.55-.23.85-.38-.03-.16-.05-.34-.05-.54v-3.15h-1.47c-1.14,0-1.71.69-1.71,2.08,0,.54.08.97.23,1.29.15.32.35.54.58.67.24.13.49.2.76.2Z"
     id="path3842" />
  <path
     class="cls-33"
     d="M279.64,181.39c-1.52,0-2.64-.49-3.36-1.48-.72-.99-1.07-2.52-1.07-4.6s.37-3.54,1.1-4.53c.73-.99,1.86-1.48,3.38-1.48.32,0,.62.03.91.08.29.06.54.12.73.2.24.08.36.23.36.46,0,.21-.03.44-.1.68-.07.24-.18.35-.34.35-.13,0-.32-.03-.57-.1-.24-.07-.56-.1-.96-.1-.94,0-1.61.35-2.03,1.05-.42.7-.63,1.83-.63,3.38s.21,2.72.63,3.43c.42.71,1.1,1.06,2.02,1.06.49,0,.86-.05,1.13-.15s.46-.15.58-.15c.15,0,.26.12.34.35.08.23.12.47.12.7,0,.09-.02.17-.07.25-.05.08-.14.15-.27.2-.23.1-.5.19-.83.27-.33.08-.69.12-1.08.12Z"
     id="path3844" />
  <path
     class="cls-33"
     d="M286.35,181.39c-1.08,0-1.91-.39-2.47-1.16-.56-.77-.85-1.89-.85-3.36s.28-2.59.85-3.38,1.39-1.18,2.46-1.18,1.9.4,2.46,1.18c.56.79.84,1.92.84,3.38s-.28,2.59-.84,3.36c-.56.77-1.38,1.16-2.46,1.16ZM286.34,179.95c.52,0,.9-.25,1.14-.75.24-.5.36-1.28.36-2.35s-.12-1.87-.36-2.37c-.24-.5-.62-.74-1.14-.74s-.91.25-1.14.74c-.23.5-.35,1.29-.35,2.37s.12,1.86.35,2.35c.23.5.61.75,1.14.75Z"
     id="path3846" />
  <path
     class="cls-33"
     d="M292.38,181.3c-.28,0-.48-.04-.59-.11-.11-.07-.17-.18-.17-.31v-5.8c0-.71-.03-1.23-.08-1.55-.06-.32-.08-.55-.08-.68,0-.1.08-.18.24-.25.16-.06.34-.1.54-.13.2-.02.36-.03.47-.03.17,0,.28.08.35.25s.14.47.23.91c.26-.37.57-.68.93-.92.36-.24.77-.36,1.23-.36.42,0,.81.1,1.18.31.37.21.63.56.78,1.04.25-.38.56-.7.93-.97.37-.26.8-.39,1.27-.39.59,0,1.09.19,1.5.56.41.37.62.97.62,1.78v6.24c0,.13-.06.24-.18.31-.12.07-.31.11-.58.11h-.24c-.28,0-.48-.04-.6-.11-.12-.07-.18-.18-.18-.31v-5.89c0-.38-.08-.68-.25-.89-.16-.21-.42-.31-.77-.31-.32,0-.59.1-.84.31-.24.21-.43.43-.55.67v6.11c0,.13-.06.24-.17.31-.11.07-.31.11-.59.11h-.24c-.28,0-.48-.04-.59-.11-.11-.07-.17-.18-.17-.31v-5.89c0-.38-.08-.68-.24-.89-.16-.21-.42-.31-.77-.31-.24,0-.45.06-.63.17-.19.11-.34.25-.47.41-.13.16-.22.3-.28.42v6.09c0,.13-.06.24-.17.31-.11.07-.31.11-.59.11h-.24Z"
     id="path3848" />
  <path
     class="cls-33"
     d="M304.78,184.77c-.5,0-.75-.14-.75-.42v-9.27c0-.71-.03-1.23-.08-1.55-.06-.32-.08-.55-.08-.68,0-.1.08-.18.24-.25.16-.06.34-.1.54-.13.2-.02.36-.03.47-.03.16,0,.27.07.34.22.07.15.14.42.22.83.5-.79,1.15-1.18,1.96-1.18s1.47.41,1.95,1.23.72,1.91.72,3.27c0,1.47-.25,2.6-.76,3.39-.51.8-1.17,1.19-1.98,1.19-.41,0-.75-.08-1.04-.25-.29-.16-.53-.37-.73-.62v3.82c0,.28-.25.42-.75.42h-.27ZM307.07,179.9c.97,0,1.45-1.04,1.45-3.11s-.46-3.03-1.39-3.03c-.5,0-.94.3-1.34.91v4.52c.36.47.78.71,1.27.71Z"
     id="path3850" />
  <path
     class="cls-33"
     d="M314.43,181.4c-.7,0-1.24-.2-1.62-.61-.38-.41-.57-.98-.57-1.71v-6.26c0-.28.25-.42.76-.42h.25c.51,0,.76.14.76.42v5.97c0,.37.08.65.23.84s.41.28.77.28c.34,0,.64-.09.91-.28.26-.19.48-.43.65-.72v-6.09c0-.28.25-.42.74-.42h.27c.5,0,.74.14.74.42v5.8c0,.71.03,1.22.08,1.54s.08.53.08.64-.08.2-.24.27c-.16.07-.34.12-.54.14-.2.03-.36.04-.47.04-.17,0-.29-.08-.35-.25-.06-.16-.14-.47-.23-.9-.26.37-.58.68-.97.92-.39.24-.82.36-1.28.36Z"
     id="path3852" />
  <path
     class="cls-33"
     d="M322.83,181.39c-.32,0-.62-.07-.92-.2-.3-.13-.55-.35-.75-.67-.2-.32-.3-.76-.3-1.32v-5.35h-.59c-.26,0-.39-.2-.39-.61v-.22c0-.41.13-.61.39-.61h.59l.22-1.73c.04-.28.25-.42.63-.42h.25c.24,0,.41.04.51.11.1.07.15.18.15.31v1.73h1.02c.26,0,.39.2.39.61v.22c0,.41-.13.61-.39.61h-1.02v5.14c0,.36.04.61.12.74s.23.2.46.2c.18,0,.32-.01.41-.04.09-.03.16-.04.22-.04.09,0,.16.06.2.19.04.12.08.26.1.42s.03.26.03.33c0,.12-.07.23-.22.32s-.32.16-.53.2-.4.07-.58.07Z"
     id="path3854" />
  <path
     class="cls-33"
     d="M327.77,181.39c-.74,0-1.33-.23-1.76-.69s-.64-1.11-.64-1.95c0-.77.19-1.38.58-1.83.38-.45.91-.77,1.57-.97.67-.2,1.42-.3,2.27-.3v-.66c0-.35-.1-.65-.29-.89-.19-.24-.54-.36-1.03-.36-.42,0-.79.05-1.12.14-.33.1-.61.19-.82.28s-.36.13-.44.13-.15-.06-.21-.19-.11-.27-.13-.42c-.03-.16-.04-.29-.04-.39,0-.12.14-.26.42-.41.28-.15.64-.29,1.08-.41.44-.12.89-.18,1.34-.18,1,0,1.76.24,2.27.72s.76,1.13.76,1.95v3.67c0,.71.03,1.22.08,1.54.06.32.08.53.08.64s-.08.2-.24.27c-.16.07-.34.12-.53.14-.19.03-.35.04-.46.04-.17,0-.29-.08-.36-.23s-.13-.42-.2-.79c-.25.32-.55.58-.9.79-.35.21-.77.32-1.27.32ZM328.22,180c.33,0,.63-.08.9-.25.27-.16.5-.4.68-.7v-2.13c-.97,0-1.65.13-2.05.39-.4.26-.59.72-.59,1.37,0,.42.09.74.26.97s.44.35.8.35Z"
     id="path3856" />
  <path
     class="cls-33"
     d="M336.05,181.39c-.32,0-.62-.07-.92-.2-.3-.13-.55-.35-.75-.67-.2-.32-.3-.76-.3-1.32v-5.35h-.59c-.26,0-.39-.2-.39-.61v-.22c0-.41.13-.61.39-.61h.59l.22-1.73c.04-.28.25-.42.63-.42h.25c.24,0,.41.04.51.11.1.07.15.18.15.31v1.73h1.02c.26,0,.39.2.39.61v.22c0,.41-.13.61-.39.61h-1.02v5.14c0,.36.04.61.12.74s.23.2.46.2c.18,0,.32-.01.41-.04.09-.03.16-.04.22-.04.09,0,.16.06.2.19.04.12.08.26.1.42s.03.26.03.33c0,.12-.07.23-.22.32s-.32.16-.53.2-.4.07-.58.07Z"
     id="path3858" />
  <path
     class="cls-33"
     d="M339.92,171.3c-.33,0-.56-.04-.69-.11-.13-.07-.2-.18-.2-.31v-1.1c0-.14.07-.24.2-.31.13-.07.37-.11.69-.11s.54.04.68.11c.13.07.2.18.2.31v1.1c0,.13-.07.24-.2.31-.14.07-.36.11-.68.11ZM339.79,181.3c-.28,0-.48-.04-.59-.11-.11-.07-.17-.18-.17-.31v-8.07c0-.13.06-.24.17-.31.11-.07.31-.11.59-.11h.24c.28,0,.48.04.59.11.11.07.17.18.17.31v8.07c0,.13-.06.24-.17.31-.11.07-.31.11-.59.11h-.24Z"
     id="path3860" />
  <path
     class="cls-33"
     d="M346.08,181.39c-1.08,0-1.91-.39-2.47-1.16-.56-.77-.85-1.89-.85-3.36s.28-2.59.85-3.38,1.39-1.18,2.46-1.18,1.9.4,2.46,1.18c.56.79.84,1.92.84,3.38s-.28,2.59-.84,3.36c-.56.77-1.38,1.16-2.46,1.16ZM346.07,179.95c.52,0,.9-.25,1.14-.75.24-.5.36-1.28.36-2.35s-.12-1.87-.36-2.37c-.24-.5-.62-.74-1.14-.74s-.91.25-1.14.74c-.23.5-.35,1.29-.35,2.37s.12,1.86.35,2.35c.23.5.61.75,1.14.75Z"
     id="path3862" />
  <path
     class="cls-33"
     d="M352.11,181.3c-.28,0-.48-.04-.59-.11-.11-.07-.17-.18-.17-.31v-5.8c0-.71-.03-1.23-.08-1.55-.06-.32-.08-.55-.08-.68,0-.1.08-.18.24-.25.16-.06.34-.1.54-.13.2-.02.36-.03.47-.03.17,0,.28.08.35.25s.14.47.23.91c.27-.37.6-.68.98-.92.38-.24.81-.36,1.29-.36.61,0,1.13.19,1.56.56.43.37.64.97.64,1.78v6.24c0,.13-.06.24-.18.31-.12.07-.31.11-.58.11h-.24c-.28,0-.48-.04-.6-.11-.12-.07-.18-.18-.18-.31v-5.89c0-.38-.09-.68-.26-.89-.18-.21-.46-.31-.86-.31-.25,0-.47.06-.68.17-.2.11-.37.25-.51.41-.13.16-.23.3-.29.42v6.09c0,.13-.06.24-.17.31-.11.07-.31.11-.59.11h-.24Z"
     id="path3864" />
  <path
     class="cls-33"
     d="M361.75,181.39c-.74,0-1.33-.23-1.76-.69s-.64-1.11-.64-1.95c0-.77.19-1.38.58-1.83.38-.45.91-.77,1.57-.97.67-.2,1.42-.3,2.27-.3v-.66c0-.35-.1-.65-.29-.89-.19-.24-.54-.36-1.03-.36-.42,0-.79.05-1.12.14-.33.1-.61.19-.82.28s-.36.13-.44.13-.15-.06-.21-.19-.11-.27-.13-.42c-.03-.16-.04-.29-.04-.39,0-.12.14-.26.42-.41.28-.15.64-.29,1.08-.41.44-.12.89-.18,1.34-.18,1,0,1.76.24,2.27.72s.76,1.13.76,1.95v3.67c0,.71.03,1.22.08,1.54.06.32.08.53.08.64s-.08.2-.24.27c-.16.07-.34.12-.53.14-.19.03-.35.04-.46.04-.17,0-.29-.08-.36-.23s-.13-.42-.2-.79c-.25.32-.55.58-.9.79-.35.21-.77.32-1.27.32ZM362.19,180c.33,0,.63-.08.9-.25.27-.16.5-.4.68-.7v-2.13c-.97,0-1.65.13-2.05.39-.4.26-.59.72-.59,1.37,0,.42.09.74.26.97s.44.35.8.35Z"
     id="path3866" />
  <path
     class="cls-33"
     d="M369.86,181.39c-.32,0-.62-.07-.92-.2-.3-.13-.55-.35-.75-.67-.2-.32-.3-.76-.3-1.32v-10.24c0-.13.06-.24.17-.32.11-.08.31-.12.59-.12h.24c.28,0,.48.04.59.12.11.08.17.19.17.32v10.03c0,.36.04.61.12.74s.23.2.46.2c.18,0,.32-.01.41-.04.09-.03.16-.04.22-.04.09,0,.16.06.2.19.04.12.08.26.1.42s.03.26.03.33c0,.12-.07.23-.22.32s-.32.16-.53.2-.4.07-.58.07Z"
     id="path3868" />
  <path
     class="cls-33"
     d="M377.32,181.37c-.47,0-.93-.05-1.35-.16s-.82-.27-1.17-.5c-.26-.15-.39-.33-.39-.54,0-.09.02-.22.06-.4.04-.17.1-.33.18-.47.08-.14.17-.21.27-.21s.26.06.47.18c.21.12.49.24.81.36.33.12.71.18,1.15.18.5,0,.91-.14,1.25-.42.34-.28.51-.71.51-1.28,0-.4-.09-.72-.27-.97-.18-.25-.42-.47-.72-.64-.3-.17-.62-.35-.96-.53-.44-.21-.85-.46-1.24-.73-.38-.27-.69-.61-.93-1.02-.24-.41-.35-.94-.35-1.6,0-.69.15-1.28.46-1.79.31-.5.72-.89,1.25-1.15.53-.27,1.13-.4,1.81-.4.36,0,.72.04,1.09.13.37.09.69.22.97.37.09.06.16.11.2.17s.07.13.07.24c0,.09-.02.22-.05.39s-.08.32-.14.47c-.06.14-.14.21-.23.21-.12,0-.35-.07-.68-.21-.33-.14-.74-.21-1.23-.21s-.94.14-1.27.43c-.33.29-.49.68-.49,1.19,0,.4.1.72.29.97s.44.46.75.63c.3.17.63.35.98.52.43.24.83.49,1.21.76.38.27.68.62.91,1.03.23.42.35.95.35,1.61,0,1.04-.33,1.87-.97,2.49-.65.62-1.51.93-2.6.93Z"
     id="path3870" />
  <path
     class="cls-33"
     d="M385.44,181.39c-1.08,0-1.91-.39-2.47-1.16-.56-.77-.85-1.89-.85-3.36s.28-2.59.85-3.38,1.39-1.18,2.46-1.18,1.9.4,2.46,1.18c.56.79.84,1.92.84,3.38s-.28,2.59-.84,3.36c-.56.77-1.38,1.16-2.46,1.16ZM385.42,179.95c.52,0,.9-.25,1.14-.75.24-.5.36-1.28.36-2.35s-.12-1.87-.36-2.37c-.24-.5-.62-.74-1.14-.74s-.91.25-1.14.74c-.23.5-.35,1.29-.35,2.37s.12,1.86.35,2.35c.23.5.61.75,1.14.75Z"
     id="path3872" />
  <path
     class="cls-33"
     d="M393.77,181.39c-1.13,0-1.99-.38-2.57-1.15-.59-.77-.88-1.89-.88-3.37s.29-2.59.86-3.38,1.44-1.18,2.59-1.18c.32,0,.63.03.94.1.31.07.57.15.77.26s.3.22.3.33c0,.1-.02.23-.05.39-.03.16-.08.3-.14.42s-.13.19-.21.19c-.11,0-.3-.04-.55-.13s-.57-.13-.96-.13c-.62,0-1.07.25-1.34.74s-.41,1.28-.41,2.38.13,1.87.41,2.36.72.74,1.34.74c.42,0,.76-.05,1.04-.16s.47-.16.58-.16c.08,0,.15.06.21.18.06.12.11.26.13.41.03.16.04.29.04.41s-.11.23-.32.35-.48.22-.8.3-.65.12-.99.12Z"
     id="path3874" />
  <path
     class="cls-33"
     d="M398.1,171.3c-.33,0-.56-.04-.69-.11-.13-.07-.2-.18-.2-.31v-1.1c0-.14.07-.24.2-.31.13-.07.37-.11.69-.11s.54.04.68.11c.13.07.2.18.2.31v1.1c0,.13-.07.24-.2.31-.14.07-.36.11-.68.11ZM397.96,181.3c-.28,0-.48-.04-.59-.11-.11-.07-.17-.18-.17-.31v-8.07c0-.13.06-.24.17-.31.11-.07.31-.11.59-.11h.24c.28,0,.48.04.59.11.11.07.17.18.17.31v8.07c0,.13-.06.24-.17.31-.11.07-.31.11-.59.11h-.24Z"
     id="path3876" />
  <path
     class="cls-33"
     d="M403.29,181.39c-.74,0-1.33-.23-1.76-.69s-.64-1.11-.64-1.95c0-.77.19-1.38.58-1.83.38-.45.91-.77,1.57-.97.67-.2,1.42-.3,2.27-.3v-.66c0-.35-.1-.65-.29-.89-.19-.24-.54-.36-1.03-.36-.42,0-.79.05-1.12.14-.33.1-.61.19-.82.28s-.36.13-.44.13-.15-.06-.21-.19-.11-.27-.13-.42c-.03-.16-.04-.29-.04-.39,0-.12.14-.26.42-.41.28-.15.64-.29,1.08-.41.44-.12.89-.18,1.34-.18,1,0,1.76.24,2.27.72s.76,1.13.76,1.95v3.67c0,.71.03,1.22.08,1.54.06.32.08.53.08.64s-.08.2-.24.27c-.16.07-.34.12-.53.14-.19.03-.35.04-.46.04-.17,0-.29-.08-.36-.23s-.13-.42-.2-.79c-.25.32-.55.58-.9.79-.35.21-.77.32-1.27.32ZM403.73,180c.33,0,.63-.08.9-.25.27-.16.5-.4.68-.7v-2.13c-.97,0-1.65.13-2.05.39-.4.26-.59.72-.59,1.37,0,.42.09.74.26.97s.44.35.8.35Z"
     id="path3878" />
  <path
     class="cls-33"
     d="M411.4,181.39c-.32,0-.62-.07-.92-.2-.3-.13-.55-.35-.75-.67-.2-.32-.3-.76-.3-1.32v-10.24c0-.13.06-.24.17-.32.11-.08.31-.12.59-.12h.24c.28,0,.48.04.59.12.11.08.17.19.17.32v10.03c0,.36.04.61.12.74s.23.2.46.2c.18,0,.32-.01.41-.04.09-.03.16-.04.22-.04.09,0,.16.06.2.19.04.12.08.26.1.42s.03.26.03.33c0,.12-.07.23-.22.32s-.32.16-.53.2-.4.07-.58.07Z"
     id="path3880" />
  <path
     class="cls-33"
     d="M418.86,181.37c-.47,0-.93-.05-1.35-.16s-.82-.27-1.17-.5c-.26-.15-.39-.33-.39-.54,0-.09.02-.22.06-.4.04-.17.1-.33.18-.47.08-.14.17-.21.27-.21s.26.06.47.18c.21.12.49.24.81.36.33.12.71.18,1.15.18.5,0,.91-.14,1.25-.42.34-.28.51-.71.51-1.28,0-.4-.09-.72-.27-.97-.18-.25-.42-.47-.72-.64-.3-.17-.62-.35-.96-.53-.44-.21-.85-.46-1.24-.73-.38-.27-.69-.61-.93-1.02-.24-.41-.35-.94-.35-1.6,0-.69.15-1.28.46-1.79.31-.5.72-.89,1.25-1.15.53-.27,1.13-.4,1.81-.4.36,0,.72.04,1.09.13.37.09.69.22.97.37.09.06.16.11.2.17s.07.13.07.24c0,.09-.02.22-.05.39s-.08.32-.14.47c-.06.14-.14.21-.23.21-.12,0-.35-.07-.68-.21-.33-.14-.74-.21-1.23-.21s-.94.14-1.27.43c-.33.29-.49.68-.49,1.19,0,.4.1.72.29.97s.44.46.75.63c.3.17.63.35.98.52.43.24.83.49,1.21.76.38.27.68.62.91,1.03.23.42.35.95.35,1.61,0,1.04-.33,1.87-.97,2.49-.65.62-1.51.93-2.6.93Z"
     id="path3882" />
  <path
     class="cls-33"
     d="M427.12,181.39c-1.13,0-1.99-.38-2.57-1.15-.59-.77-.88-1.89-.88-3.37s.29-2.59.86-3.38,1.44-1.18,2.59-1.18c.32,0,.63.03.94.1.31.07.57.15.77.26s.3.22.3.33c0,.1-.02.23-.05.39-.03.16-.08.3-.14.42s-.13.19-.21.19c-.11,0-.3-.04-.55-.13s-.57-.13-.96-.13c-.62,0-1.07.25-1.34.74s-.41,1.28-.41,2.38.13,1.87.41,2.36.72.74,1.34.74c.42,0,.76-.05,1.04-.16s.47-.16.58-.16c.08,0,.15.06.21.18.06.12.11.26.13.41.03.16.04.29.04.41s-.11.23-.32.35-.48.22-.8.3-.65.12-.99.12Z"
     id="path3884" />
  <path
     class="cls-33"
     d="M431.45,171.3c-.33,0-.56-.04-.69-.11-.13-.07-.2-.18-.2-.31v-1.1c0-.14.07-.24.2-.31.13-.07.37-.11.69-.11s.54.04.68.11c.13.07.2.18.2.31v1.1c0,.13-.07.24-.2.31-.14.07-.36.11-.68.11ZM431.31,181.3c-.28,0-.48-.04-.59-.11-.11-.07-.17-.18-.17-.31v-8.07c0-.13.06-.24.17-.31.11-.07.31-.11.59-.11h.24c.28,0,.48.04.59.11.11.07.17.18.17.31v8.07c0,.13-.06.24-.17.31-.11.07-.31.11-.59.11h-.24Z"
     id="path3886" />
  <path
     class="cls-33"
     d="M437.83,181.39c-2.36,0-3.54-1.5-3.54-4.48,0-1.57.3-2.73.89-3.48.59-.75,1.42-1.12,2.5-1.12s1.8.39,2.29,1.16c.49.77.74,1.88.74,3.31,0,.52-.22.78-.66.78h-3.94c.02.84.18,1.44.48,1.83.3.38.75.58,1.35.58.38,0,.72-.05,1.02-.15.29-.1.54-.2.73-.3s.32-.15.39-.15c.09,0,.17.06.23.17.06.11.11.24.14.39.03.15.05.27.05.37,0,.15-.13.31-.39.48-.26.17-.59.32-1,.45s-.83.19-1.27.19ZM436.1,176.24h2.91c0-1.69-.46-2.54-1.37-2.54-.47,0-.85.2-1.12.6-.27.4-.41,1.05-.42,1.94Z"
     id="path3888" />
  <path
     class="cls-33"
     d="M443.36,181.3c-.28,0-.48-.04-.59-.11-.11-.07-.17-.18-.17-.31v-5.8c0-.71-.03-1.23-.08-1.55-.06-.32-.08-.55-.08-.68,0-.1.08-.18.24-.25.16-.06.34-.1.54-.13.2-.02.36-.03.47-.03.17,0,.28.08.35.25s.14.47.23.91c.27-.37.6-.68.98-.92.38-.24.81-.36,1.29-.36.61,0,1.13.19,1.56.56.43.37.64.97.64,1.78v6.24c0,.13-.06.24-.18.31-.12.07-.31.11-.58.11h-.24c-.28,0-.48-.04-.6-.11-.12-.07-.18-.18-.18-.31v-5.89c0-.38-.09-.68-.26-.89-.18-.21-.46-.31-.86-.31-.25,0-.47.06-.68.17-.2.11-.37.25-.51.41-.13.16-.23.3-.29.42v6.09c0,.13-.06.24-.17.31-.11.07-.31.11-.59.11h-.24Z"
     id="path3890" />
  <path
     class="cls-33"
     d="M454.11,181.39c-1.13,0-1.99-.38-2.57-1.15-.59-.77-.88-1.89-.88-3.37s.29-2.59.86-3.38,1.44-1.18,2.59-1.18c.32,0,.63.03.94.1.31.07.57.15.77.26s.3.22.3.33c0,.1-.02.23-.05.39-.03.16-.08.3-.14.42s-.13.19-.21.19c-.11,0-.3-.04-.55-.13s-.57-.13-.96-.13c-.62,0-1.07.25-1.34.74s-.41,1.28-.41,2.38.13,1.87.41,2.36.72.74,1.34.74c.42,0,.76-.05,1.04-.16s.47-.16.58-.16c.08,0,.15.06.21.18.06.12.11.26.13.41.03.16.04.29.04.41s-.11.23-.32.35-.48.22-.8.3-.65.12-.99.12Z"
     id="path3892" />
  <path
     class="cls-33"
     d="M460.69,181.39c-2.36,0-3.54-1.5-3.54-4.48,0-1.57.3-2.73.89-3.48.59-.75,1.42-1.12,2.5-1.12s1.8.39,2.29,1.16c.49.77.74,1.88.74,3.31,0,.52-.22.78-.66.78h-3.94c.02.84.18,1.44.48,1.83.3.38.75.58,1.35.58.38,0,.72-.05,1.02-.15.29-.1.54-.2.73-.3s.32-.15.39-.15c.09,0,.17.06.23.17.06.11.11.24.14.39.03.15.05.27.05.37,0,.15-.13.31-.39.48-.26.17-.59.32-1,.45s-.83.19-1.27.19ZM458.96,176.24h2.91c0-1.69-.46-2.54-1.37-2.54-.47,0-.85.2-1.12.6-.27.4-.41,1.05-.42,1.94Z"
     id="path3894" />
  <path
     class="cls-33"
     d="M467.2,181.42c-.42,0-.8-.06-1.16-.17s-.64-.25-.85-.41c-.22-.16-.32-.33-.32-.48,0-.1.04-.23.12-.4s.17-.31.28-.43.2-.19.28-.19c.04,0,.14.05.27.14.14.1.31.19.52.3.21.1.45.15.73.15.37,0,.66-.09.86-.26.2-.17.31-.44.31-.79,0-.38-.13-.68-.4-.91-.27-.22-.61-.44-1.02-.65-.52-.26-.94-.58-1.27-.95-.33-.37-.49-.9-.49-1.59,0-.76.24-1.36.73-1.81.48-.45,1.1-.68,1.84-.68.29,0,.59.03.9.09.31.06.56.16.76.28.2.12.31.26.31.42,0,.1-.03.23-.09.4-.06.16-.14.31-.23.45-.09.13-.17.2-.25.2-.06,0-.19-.06-.4-.19-.21-.13-.48-.19-.8-.19-.31,0-.56.08-.76.23-.2.15-.31.37-.31.67,0,.36.13.65.4.86.26.21.57.4.91.58.56.28,1.01.62,1.34,1.02.33.4.5.96.5,1.69,0,.79-.25,1.43-.76,1.9-.51.48-1.15.72-1.93.72Z"
     id="path3896" />
  <path
     class="cls-33"
     d="M475.12,171.3c-.33,0-.56-.04-.69-.11-.13-.07-.2-.18-.2-.31v-1.1c0-.14.07-.24.2-.31.13-.07.37-.11.69-.11s.54.04.68.11c.13.07.2.18.2.31v1.1c0,.13-.07.24-.2.31-.14.07-.36.11-.68.11ZM474.99,181.3c-.28,0-.48-.04-.59-.11-.11-.07-.17-.18-.17-.31v-8.07c0-.13.06-.24.17-.31.11-.07.31-.11.59-.11h.24c.28,0,.48.04.59.11.11.07.17.18.17.31v8.07c0,.13-.06.24-.17.31-.11.07-.31.11-.59.11h-.24Z"
     id="path3898" />
  <path
     class="cls-33"
     d="M479.11,181.3c-.28,0-.48-.04-.59-.11-.11-.07-.17-.18-.17-.31v-5.8c0-.71-.03-1.23-.08-1.55-.06-.32-.08-.55-.08-.68,0-.1.08-.18.24-.25.16-.06.34-.1.54-.13.2-.02.36-.03.47-.03.17,0,.28.08.35.25s.14.47.23.91c.27-.37.6-.68.98-.92.38-.24.81-.36,1.29-.36.61,0,1.13.19,1.56.56.43.37.64.97.64,1.78v6.24c0,.13-.06.24-.18.31-.12.07-.31.11-.58.11h-.24c-.28,0-.48-.04-.6-.11-.12-.07-.18-.18-.18-.31v-5.89c0-.38-.09-.68-.26-.89-.18-.21-.46-.31-.86-.31-.25,0-.47.06-.68.17-.2.11-.37.25-.51.41-.13.16-.23.3-.29.42v6.09c0,.13-.06.24-.17.31-.11.07-.31.11-.59.11h-.24Z"
     id="path3900" />
  <path
     class="cls-33"
     d="M491.5,181.37c-.47,0-.93-.05-1.35-.16s-.82-.27-1.17-.5c-.26-.15-.39-.33-.39-.54,0-.09.02-.22.06-.4.04-.17.1-.33.18-.47.08-.14.17-.21.27-.21s.26.06.47.18c.21.12.49.24.81.36.33.12.71.18,1.15.18.5,0,.91-.14,1.25-.42.34-.28.51-.71.51-1.28,0-.4-.09-.72-.27-.97-.18-.25-.42-.47-.72-.64-.3-.17-.62-.35-.96-.53-.44-.21-.85-.46-1.24-.73-.38-.27-.69-.61-.93-1.02-.24-.41-.35-.94-.35-1.6,0-.69.15-1.28.46-1.79.31-.5.72-.89,1.25-1.15.53-.27,1.13-.4,1.81-.4.36,0,.72.04,1.09.13.37.09.69.22.97.37.09.06.16.11.2.17s.07.13.07.24c0,.09-.02.22-.05.39s-.08.32-.14.47c-.06.14-.14.21-.23.21-.12,0-.35-.07-.68-.21-.33-.14-.74-.21-1.23-.21s-.94.14-1.27.43c-.33.29-.49.68-.49,1.19,0,.4.1.72.29.97s.44.46.75.63c.3.17.63.35.98.52.43.24.83.49,1.21.76.38.27.68.62.91,1.03.23.42.35.95.35,1.61,0,1.04-.33,1.87-.97,2.49-.65.62-1.51.93-2.6.93Z"
     id="path3902" />
  <path
     class="cls-33"
     d="M499.62,181.39c-1.08,0-1.91-.39-2.47-1.16-.56-.77-.85-1.89-.85-3.36s.28-2.59.85-3.38,1.39-1.18,2.46-1.18,1.9.4,2.46,1.18c.56.79.84,1.92.84,3.38s-.28,2.59-.84,3.36c-.56.77-1.38,1.16-2.46,1.16ZM499.61,179.95c.52,0,.9-.25,1.14-.75.24-.5.36-1.28.36-2.35s-.12-1.87-.36-2.37c-.24-.5-.62-.74-1.14-.74s-.91.25-1.14.74c-.23.5-.35,1.29-.35,2.37s.12,1.86.35,2.35c.23.5.61.75,1.14.75Z"
     id="path3904" />
  <path
     class="cls-33"
     d="M507.02,181.4c-.7,0-1.24-.2-1.62-.61-.38-.41-.57-.98-.57-1.71v-6.26c0-.28.25-.42.76-.42h.25c.51,0,.76.14.76.42v5.97c0,.37.08.65.23.84s.41.28.77.28c.34,0,.64-.09.91-.28.26-.19.48-.43.65-.72v-6.09c0-.28.25-.42.74-.42h.27c.5,0,.74.14.74.42v5.8c0,.71.03,1.22.08,1.54s.08.53.08.64-.08.2-.24.27c-.16.07-.34.12-.54.14-.2.03-.36.04-.47.04-.17,0-.29-.08-.35-.25-.06-.16-.14-.47-.23-.9-.26.37-.58.68-.97.92-.39.24-.82.36-1.28.36Z"
     id="path3906" />
  <path
     class="cls-33"
     d="M515.43,181.39c-.32,0-.62-.07-.92-.2-.3-.13-.55-.35-.75-.67-.2-.32-.3-.76-.3-1.32v-5.35h-.59c-.26,0-.39-.2-.39-.61v-.22c0-.41.13-.61.39-.61h.59l.22-1.73c.04-.28.25-.42.63-.42h.25c.24,0,.41.04.51.11.1.07.15.18.15.31v1.73h1.02c.26,0,.39.2.39.61v.22c0,.41-.13.61-.39.61h-1.02v5.14c0,.36.04.61.12.74s.23.2.46.2c.18,0,.32-.01.41-.04.09-.03.16-.04.22-.04.09,0,.16.06.2.19.04.12.08.26.1.42s.03.26.03.33c0,.12-.07.23-.22.32s-.32.16-.53.2-.4.07-.58.07Z"
     id="path3908" />
  <path
     class="cls-33"
     d="M519.17,181.3c-.28,0-.48-.04-.59-.11-.11-.07-.17-.18-.17-.31v-11.91c0-.29.25-.44.75-.44h.25c.51,0,.76.15.76.44v4.48c.22-.3.53-.57.9-.8.38-.23.8-.35,1.26-.35.61,0,1.13.19,1.56.56.43.37.64.97.64,1.78v6.24c0,.13-.06.24-.18.31-.12.07-.31.11-.58.11h-.24c-.28,0-.48-.04-.6-.11-.12-.07-.18-.18-.18-.31v-5.89c0-.38-.09-.68-.26-.89-.18-.21-.46-.31-.86-.31-.25,0-.47.06-.68.17-.2.11-.37.25-.51.41-.13.16-.23.3-.29.42v6.09c0,.13-.06.24-.17.31-.11.07-.31.11-.59.11h-.24Z"
     id="path3910" />
  <path
     class="cls-33"
     d="M529.01,181.3c-.43,0-.64-.11-.64-.32,0-.06.01-.15.03-.29l2.91-10.9c.08-.27.34-.41.79-.41h.75c.45,0,.72.14.79.41l2.89,10.9c.01.08.02.14.03.18.01.04.02.08.02.11,0,.22-.21.32-.64.32h-.47c-.18,0-.34-.02-.47-.07-.13-.04-.21-.13-.23-.25l-.63-2.57h-3.35l-.64,2.57c-.02.12-.1.21-.23.25-.13.04-.29.07-.47.07h-.46ZM532.23,172.59l-1.07,4.33h2.62l-1.07-4.33c-.04-.17-.08-.35-.11-.54s-.06-.38-.09-.56h-.08c-.02.18-.05.37-.08.56-.03.19-.07.37-.12.54Z"
     id="path3912" />
  <path
     class="cls-33"
     d="M538.86,181.3c-.28,0-.48-.04-.59-.11-.11-.07-.17-.18-.17-.31v-7.02h-.61c-.25,0-.37-.2-.37-.61v-.22c0-.41.12-.61.37-.61h.61v-1.78c0-.56.1-1,.3-1.32.2-.32.45-.54.75-.67s.61-.2.91-.2c.18,0,.38.02.58.06s.39.1.53.18c.15.08.22.18.22.3,0,.07-.01.18-.03.34-.02.16-.06.3-.1.44-.04.13-.11.2-.2.2-.06,0-.13-.01-.22-.04-.09-.03-.23-.04-.41-.04-.23,0-.38.07-.46.2s-.12.37-.12.73v1.59h1.02c.26,0,.39.2.39.61v.22c0,.41-.13.61-.39.61h-1.02v7.02c0,.13-.06.24-.17.31-.11.07-.31.11-.59.11h-.24Z"
     id="path3914" />
  <path
     class="cls-33"
     d="M543.62,181.3c-.52,0-.78-.14-.78-.42v-5.8c0-.71-.03-1.23-.08-1.55-.06-.32-.08-.55-.08-.68,0-.1.08-.18.23-.25s.33-.1.52-.13.35-.03.47-.03c.17,0,.29.08.36.25s.15.48.24.94c.24-.39.54-.71.91-.96.37-.24.72-.36,1.06-.36.21,0,.36.05.43.15.07.1.11.25.11.46,0,.16-.02.33-.05.52s-.08.35-.14.48-.14.2-.23.2-.19-.02-.3-.06-.26-.06-.47-.06c-.27,0-.52.08-.73.24-.22.16-.38.36-.47.61v6.04c0,.28-.27.42-.8.42h-.19Z"
     id="path3916" />
  <path
     class="cls-33"
     d="M548.96,171.3c-.33,0-.56-.04-.69-.11-.13-.07-.2-.18-.2-.31v-1.1c0-.14.07-.24.2-.31.13-.07.37-.11.69-.11s.54.04.68.11c.13.07.2.18.2.31v1.1c0,.13-.07.24-.2.31-.14.07-.36.11-.68.11ZM548.83,181.3c-.28,0-.48-.04-.59-.11-.11-.07-.17-.18-.17-.31v-8.07c0-.13.06-.24.17-.31.11-.07.31-.11.59-.11h.24c.28,0,.48.04.59.11.11.07.17.18.17.31v8.07c0,.13-.06.24-.17.31-.11.07-.31.11-.59.11h-.24Z"
     id="path3918" />
  <path
     class="cls-33"
     d="M555.26,181.39c-1.13,0-1.99-.38-2.57-1.15-.59-.77-.88-1.89-.88-3.37s.29-2.59.86-3.38,1.44-1.18,2.59-1.18c.32,0,.63.03.94.1.31.07.57.15.77.26s.3.22.3.33c0,.1-.02.23-.05.39-.03.16-.08.3-.14.42s-.13.19-.21.19c-.11,0-.3-.04-.55-.13s-.57-.13-.96-.13c-.62,0-1.07.25-1.34.74s-.41,1.28-.41,2.38.13,1.87.41,2.36.72.74,1.34.74c.42,0,.76-.05,1.04-.16s.47-.16.58-.16c.08,0,.15.06.21.18.06.12.11.26.13.41.03.16.04.29.04.41s-.11.23-.32.35-.48.22-.8.3-.65.12-.99.12Z"
     id="path3920" />
  <path
     class="cls-33"
     d="M560.66,181.39c-.74,0-1.33-.23-1.76-.69s-.64-1.11-.64-1.95c0-.77.19-1.38.58-1.83.38-.45.91-.77,1.57-.97.67-.2,1.42-.3,2.27-.3v-.66c0-.35-.1-.65-.29-.89-.19-.24-.54-.36-1.03-.36-.42,0-.79.05-1.12.14-.33.1-.61.19-.82.28s-.36.13-.44.13-.15-.06-.21-.19-.11-.27-.13-.42c-.03-.16-.04-.29-.04-.39,0-.12.14-.26.42-.41.28-.15.64-.29,1.08-.41.44-.12.89-.18,1.34-.18,1,0,1.76.24,2.27.72s.76,1.13.76,1.95v3.67c0,.71.03,1.22.08,1.54.06.32.08.53.08.64s-.08.2-.24.27c-.16.07-.34.12-.53.14-.19.03-.35.04-.46.04-.17,0-.29-.08-.36-.23s-.13-.42-.2-.79c-.25.32-.55.58-.9.79-.35.21-.77.32-1.27.32ZM561.1,180c.33,0,.63-.08.9-.25.27-.16.5-.4.68-.7v-2.13c-.97,0-1.65.13-2.05.39-.4.26-.59.72-.59,1.37,0,.42.09.74.26.97s.44.35.8.35Z"
     id="path3922" />
  <circle
     class="cls-15"
     cx="261.18"
     cy="50.37"
     r="5.24"
     id="circle3924" />
  <circle
     class="cls-15"
     cx="316.17"
     cy="60.11"
     r="5.24"
     id="circle3926" />
  <circle
     class="cls-15"
     cx="247.58"
     cy="70.18"
     r="4.02"
     id="circle3928" />
  <path
     class="cls-33"
     d="M104.18,139.37c1.64,1.92,3.31,3.71,3.83,6.18.03.16.05.32.05.48,0,4.03,0,8.06,0,12.08,0,.1-.02.2-.03.35h-8.69c-.01-.23-.03-.44-.03-.65,0-3.93,0-7.85.02-11.78,0-.33.17-.7.37-.96,1.35-1.75,2.72-3.48,4.09-5.22.1-.13.2-.25.38-.48Z"
     id="path3930" />
  <path
     class="cls-33"
     d="M105.32,135.22c.02,1.86-1.51,3.48-3.3,3.48-1.82,0-3.41-1.63-3.42-3.53-.01-1.78,1.56-3.31,3.4-3.31,1.82,0,3.31,1.49,3.32,3.36Z"
     id="path3932" />
  <path
     class="cls-33"
     d="M99.63,139.05c.33.23.56.55,1.3.7,1.32.26,1.87-.09,1.87-.09,0,0-2.11,2.68-3.57,4.36.15-1.91.28-2.04.28-3.71"
     id="path3934" />
  <path
     class="cls-33"
     d="M97.75,152.53c-.05-4.42-.02-8.82,1.19-13.16-.36.26-.63.54-.87.84-1.46,1.85-2.9,3.72-4.36,5.57-1.13,1.43-2.52,2.44-4.38,2.64-.63.07-1.1.07-1.38.06-1.43-.05-2.81-.46-3.41-.65l-.34,2.11c.56.24,1.33.54,2.27.83.59.18,1.24.38,2.04.53,2,.37,3.62.16,4.15.08.73-.11,1.72-.33,2.85-.79,0,.76,0,1.6,0,2.43,0,.08,0,.18.01.27-.27.21-.82.17-1.25.19-4.97.19-9.93.36-14.88-.31-4.54-.61-8.92-1.8-13.01-3.88-5.52-2.8-10.13-6.75-14.03-11.52-4.71-5.75-7.97-12.21-9.22-19.6-.76-4.45-.74-8.9.1-13.33,1.2-6.36,3.94-11.78,8.33-16.23l-.02-2.42c-1.21,1.33-3.06,3.38-3.2,3.55-5.31,6.58-8.04,14.17-8.44,22.53-.27,5.65-.12,11.32-.13,16.98,0,2.86.46,5.64,1.33,8.37,2.54,7.99,7.53,13.9,15,17.68,3.78,1.91,7.81,3.11,12.07,3.13,9.67.06,19.34.02,29.01.01h.68c.08-1.98-.07-5.92-.11-5.91Z"
     id="path3936" />
  <path
     class="cls-33"
     d="M74.54,133.55c-1.34-.01-2.74-1.37-2.7-2.64.04-1.45,1.28-2.62,2.76-2.6,1.37.01,2.53,1.21,2.52,2.6,0,1.38-1.25,2.65-2.58,2.64Z"
     id="path3938" />
  <path
     class="cls-33"
     d="M84.98,140.5c.01,1.39-1.23,2.66-2.61,2.69-1.38.03-2.58-1.13-2.61-2.51-.03-1.47,1.16-2.67,2.65-2.67,1.32,0,2.56,1.2,2.57,2.5Z"
     id="path3940" />
  <path
     class="cls-33"
     d="M64.28,124.09c-1.51.02-2.72-1.16-2.74-2.67-.02-1.63,1.1-2.81,2.66-2.81,1.56,0,2.74,1.17,2.78,2.76.03,1.45-1.22,2.71-2.7,2.73Z"
     id="path3942" />
  <path
     class="cls-33"
     d="M55.19,113.48c1.5-.2,2.52-1.54,2.33-3.04-.21-1.61-1.49-2.63-3.04-2.4-1.55.22-2.55,1.55-2.35,3.13.18,1.44,1.59,2.51,3.06,2.32Z"
     id="path3944" />
  <path
     class="cls-33"
     d="M65.74,70.76h-.08c-.87,0-1.57.7-1.57,1.57v1.13c-.43.85-.99,1.47-1.66,1.83-.5.27-.85.29-1.3.32-.5.03-1.08.07-1.82.48-1.21.67-1.63,1.63-2,2.47-.32.73-.59,1.36-1.36,1.79-.6.33-1.06.31-1.59.29-.65-.03-1.39-.06-2.18.63-.79.68-1.29,1.74-2.11,3.5l-.2.42c-.15.31-.01.69.3.84.09.04.18.06.27.06.24,0,.46-.13.57-.36l.2-.42c.3-.65.56-1.18.79-1.63,0,.83,0,2.02.01,2.09.02.72,0,5.52.05,5.89l1.37-.56s.05-2.39.14-4.24c.13.1,2.16.61,2.16.61l.02,2.34,1.39-.49s.05-2.6.02-2.66c-.05-.19-.18-.37-.43-.47-.89-.36-1.38-.44-2.03-.68,0,0-.05-2.57-.12-3.59.55.01,1.21-.02,1.98-.45,1.15-.63,1.55-1.56,1.91-2.39.07-.16.14-.31.21-.46.01.73.02,1.61.03,1.67.03.65.07,5.02.12,5.36l1.22-.49s.01-2.17.07-3.86c.12.09,1.94.58,1.94.58l.05,2.13,1.23-.42s.01-2.37-.02-2.42c-.04-.18-.17-.34-.39-.43-.8-.34-1.24-.42-1.82-.65,0,0-.08-2.21-.15-3.18.08,0,.16-.01.25-.02.5-.03,1.07-.07,1.81-.46.39-.21.75-.48,1.07-.8v2.91h.97l-.07,2.94,1.26.03.07-2.97h1v-6.17c0-.87-.7-1.57-1.57-1.57Z"
     id="path3946" />
  <path
     class="cls-33"
     d="M80.68,68.96c0-.87-.7-1.57-1.57-1.57h-.08c-.87,0-1.57.7-1.57,1.57v.52c-.87.65-2.01,1.08-3.1,1.13-1.16.06-2.14-.31-2.51-.45-.27-.1-.51-.21-.73-.34v-.03c0-.87-.7-1.57-1.57-1.57h-.08c-.87,0-1.57.7-1.57,1.57v5.36h.36v5.03l1.28-.63v-3.66c.32.24.66.63.85,1.22.12.38.16,1.74.11,2.18l1.24-.74c.07-.69,0-1.39-.19-2.02-.18-.58-.45-1.03-.73-1.38h.31v-3.93c.1.04.19.09.29.12.37.14,1.43.53,2.71.53.1,0,.2,0,.3,0,1.06-.05,2.12-.37,3.04-.89v2.87h.78v3.6h1.28v-3.6h1.17v-4.89Z"
     id="path3948" />
  <path
     class="cls-33"
     d="M59.47,126.42c.94.46,1.66.42,2.33.26-.02.12-.03.24-.03.37v6.09l-.93,5.54c-.07.41.26.78.7.78h1.49v4.55c.45.34.9.54,1.37.86.37.25.73.48,1.09.71v-6.12h1.49c.44,0,.77-.37.7-.78l-.98-5.85v-2.11c.56,1.8.96,2.94,1.28,3.48.89,1.5,1.95,1.87,3.88,1.83-.11.26-.17.54-.17.84v11.7c.92.32,1.71.56,2.32.75.87.26,1.75.49,2.62.68v-7.71c.27,1.19.7,2.38,1.44,3.44.18.25.55.73,1.18,1.26v3.51c2.01.32,3.97.48,5.86.54v-4.74c0-1.22-.99-2.2-2.2-2.2h-1.45c-.78,0-1.47.41-1.86,1.03-.1-.12-.18-.23-.24-.3-1.2-1.71-1.45-4.03-1.65-5.89-.2-1.84-.35-3.29-1.34-3.92-1.09-.69-2.32-.71-3.49-.61-2.6.2-3.02-.1-3.55-1-.4-.68-1.23-3.44-2.11-6.37-.23-.77-1.31-2.35-3.17-2.35-.93,0-1.61.19-2.16.35-.72.21-1.08.31-1.74-.01-.68-.34-1.11-2.14-1.18-3.27-.3-3.64-.96-5.74-2.12-6.65-.32-.32-.74-.54-1.21-.62-.43-.14-.99-.24-1.6-.12-1.46.3-2.22,1.61-2.58,2.25-1.5,2.61-.97,5.71-.52,7.33.12.42.55.66.97.55.28-.08.49-.31.55-.57v4h.64v6.24h1.57v-6.24h.57v6.24h1.57v-6.24h.69v-5.2c.18,1.17.66,3.07,1.96,3.71ZM52.46,123.54s0-.01,0-.02c-.34-1.21-.73-3.4,0-5.34v5.36Z"
     id="path3950" />
  <path
     class="cls-33"
     d="M80.4,65.51c.02.68-.61,1.35-1.28,1.36-.71.01-1.37-.63-1.38-1.34-.01-.72.58-1.36,1.27-1.36.68,0,1.38.67,1.4,1.35Z"
     id="path3952" />
  <path
     class="cls-33"
     d="M70.83,66.46c.02.68-.61,1.35-1.28,1.36-.71.01-1.37-.63-1.38-1.34-.01-.72.58-1.36,1.27-1.36.68,0,1.38.67,1.4,1.35Z"
     id="path3954" />
  <path
     class="cls-33"
     d="M60.66,74.19c.02.68-.61,1.35-1.28,1.36-.71.01-1.37-.63-1.38-1.34-.01-.72.58-1.36,1.27-1.36.68,0,1.38.67,1.4,1.35Z"
     id="path3956" />
  <path
     class="cls-33"
     d="M54.32,79.14c.02.68-.61,1.35-1.28,1.36-.71.01-1.37-.63-1.38-1.34-.01-.72.58-1.36,1.27-1.36.68,0,1.38.67,1.4,1.35Z"
     id="path3958" />
  <path
     class="cls-33"
     d="M67.03,69.05c.02.68-.61,1.35-1.28,1.36-.71.01-1.37-.63-1.38-1.34-.01-.72.58-1.36,1.27-1.36.68,0,1.38.67,1.4,1.35Z"
     id="path3960" />
  <path
     class="cls-33"
     d="M77.64,74.91c-.03.27-.03,1.17-.03,1.17-.08.02-3.67.73-5.26,1.14-.15-.5-.13-.89-.45-1.48,1.91-.28,3.81-.55,5.75-.84Z"
     id="path3962" />
  <path
     class="cls-33"
     d="M80.16,75.78c0-.11-.02-1.12-.02-1.12.73-.03,2.43-.24,3.21-.31,0,.43,0,1.12,0,1.12,0,0-2.07.24-3.18.31Z"
     id="path3964" />
  <path
     class="cls-33"
     d="M63.45,78.46c.04.14,0,.45.26.57.29.14.64.08.68.11s0,.83-.02.86c-.06.06-.8.36-.8.36-.32-.28-1.36-.6-1.55-.65s-.3-.09-.3-.12c-.02-.1-.02-.39,0-.4.08-.11,1.73-.77,1.74-.74Z"
     id="path3966" />
  <polygon
     class="cls-33"
     points="57.96 81.37 55.25 83.02 55.25 84.98 55.64 85.09 58.16 83.36 58.16 81.25 57.96 81.37"
     id="polygon3968" />
  <path
     class="cls-33"
     d="M96.6,141.31s-10,.01-10.07,0-.56.96-1.55,1.3c.32.08.59.23.59.23h9.49l1.54-1.53Z"
     id="path3970" />
  <path
     class="cls-32"
     d="M60.02,138.84c-.1-.24-.05-.48-.03-.56.07-.3.25-1.5.51-3.15h-7.61c.62.86,1.39,1.79,2.32,2.72.41.41.81.78,1.21,1.12h3.67s-.05-.07-.07-.13Z"
     id="path3972" />
  <polygon
     class="cls-9"
     points="53.39 103.96 45.56 103.96 45.14 106.46 53.2 106.46 53.39 103.96"
     id="polygon3974" />
  <polygon
     class="cls-6"
     points="52.29 134.27 52.46 134.27 52.46 130.44 49.75 130.48 52.29 134.27"
     id="polygon3976" />
  <path
     class="cls-21"
     d="M51.36,111.03h-6.57v2.48h8.19c-.97-.63-1.51-1.41-1.63-2.48Z"
     id="path3978" />
  <path
     class="cls-24"
     d="M66.16,143.99h4.83v-3.84h-4.83v3.84Z"
     id="path3980" />
  <path
     class="cls-22"
     d="M77.59,77.09c-1.47.09-4.95.8-5.14.82s.04.33-.17,1.04c.45-.13.85-.35,1.25-.44,1.19-.29,2.81-.71,4.06-.92,0,0,0-.4,0-.5Z"
     id="path3982" />
  <path
     class="cls-31"
     d="M67.62,80.52c-.13-.22-.05-.44-.04-.47h-.71v1.31c.37-.2.73-.41,1.1-.61-.03,0-.23-.04-.35-.23Z"
     id="path3984" />
  <path
     class="cls-8"
     d="M80.12,76.85c0,.11.02.22.02.33.96-.07,2.31-.25,3.25-.34-.96,0-2.32.01-3.27.01Z"
     id="path3986" />
  <path
     class="cls-1"
     d="M64.36,81.46c-.03-.36,0-.92,0-.92l-.53.24s.06.05.08.27c.02.23.04.8.04.8h.53s-.11-.04-.13-.4Z"
     id="path3988" />
  <polygon
     class="cls-12"
     points="63.97 83.36 64.58 82.88 63.97 82.88 63.97 83.36"
     id="polygon3990" />
  <path
     class="cls-20"
     d="M61.44,83.9c0-.17-.01-1.01-.01-1.01h-.76s0,1.34,0,1.34c0,0,.93,0,.89,0s-.12-.2-.12-.33Z"
     id="path3992" />
  <path
     class="cls-7"
     d="M57.81,86.6h2.61l1.29-1.34h-1.03c-.05.09-.1.18-.16.26-.22.12-.55.29-.98.44-.5.18-.98.15-.98.15,0,0-.4-.73-.4-.85h-1.48c-.08.07-.16.14-.25.2.12,0,.58.04.96.4.3.28.39.6.42.74Z"
     id="path3994" />
  <polygon
     class="cls-16"
     points="55.11 87.91 54.09 87.62 54.09 88.97 55.11 88.97 55.11 87.91"
     id="polygon3996" />
  <polygon
     class="cls-2"
     points="59.32 87.62 57.81 87.62 57.81 88.97 58.55 88.97 59.32 87.62"
     id="polygon3998" />
  <path
     class="cls-27"
     d="M57.86,89.95h-.75c-.69.21-1.48.65-1.81.34-.07-.07-.14-.17-.2-.3h-1.02v1.34h2.91c.27-.43.59-.95.86-1.38Z"
     id="path4000" />
  <path
     class="cls-3"
     d="M77.93,146.46c-.26-.29-.47-.57-.62-.82v4.39l1.33.3v-3.21c-.22-.17-.46-.39-.71-.66Z"
     id="path4002" />
  <polygon
     class="cls-19"
     points="53.71 100.88 46.33 100.88 45.79 102.93 53.5 102.93 53.71 100.88"
     id="polygon4004" />
  <polygon
     class="cls-5"
     points="54.35 97.81 47.41 97.81 46.65 99.86 53.89 99.86 54.35 97.81"
     id="polygon4006" />
  <polygon
     class="cls-17"
     points="55.22 95.08 48.67 95.08 47.85 96.78 54.64 96.78 55.22 95.08"
     id="polygon4008" />
  <polygon
     class="cls-13"
     points="56.43 92.36 50.26 92.36 49.23 94.06 55.63 94.06 56.43 92.36"
     id="polygon4010" />
  <polygon
     class="cls-25"
     points="51.39 90.75 50.97 91.34 51.39 91.34 51.39 90.75"
     id="polygon4012" />
  <path
     class="cls-14"
     d="M52.01,108.86c.35-.45.76-.66.96-.75,0-.21-.01-.42-.02-.63h-7.94l-.18,2.51h6.67c.04-.22.16-.68.51-1.13Z"
     id="path4014" />
  <path
     class="cls-26"
     d="M50.98,115.91c.35-.6.74-1.05,1.06-1.36h-7.16l.25,2.51h5.33c.11-.33.28-.73.52-1.14Z"
     id="path4016" />
  <path
     class="cls-23"
     d="M49.76,119.82c.03-.71.18-1.31.32-1.74-1.6-.03-3.2-.05-4.81-.08l.66,3.18h3.91c-.06-.37-.1-.83-.08-1.35Z"
     id="path4018" />
  <path
     class="cls-30"
     d="M51.86,125c-.22.05-.39.03-.53,0-.79-.2-1.34-1.33-1.41-2.81h-3.71l1.04,3.1h4.61v-.29Z"
     id="path4020" />
  <path
     class="cls-29"
     d="M51.85,127.38c-.01-.27-.02-.63.01-1.06h-4.19l1.48,3.1h3.3v-1.01c-.1-.01-.25-.05-.37-.16-.15-.13-.21-.32-.23-.86Z"
     id="path4022" />
  <polygon
     class="cls-28"
     points="57.45 134.27 60.77 134.27 61.06 133.01 61.06 130.44 57.45 130.44 57.45 134.27"
     id="polygon4024" />
  <path
     class="cls-10"
     d="M57.45,128.45v.96l3.56-.04c-.53-.79-1.05-1.59-1.58-2.38-.13-.04-.3-.1-.48-.21-.25-.15-.41-.33-.51-.46h-.3c0,.26,0,.55,0,.88,0,.41-.02.74-.19.97-.03.05-.1.14-.23.21-.11.06-.21.07-.27.07Z"
     id="path4026" />
  <polygon
     class="cls-18"
     points="62.38 143.79 62.38 140.16 57.72 140.16 62.38 143.79"
     id="polygon4028" />
  <path
     class="cls-4"
     d="M68.28,138.95c-.02.08-.04.14-.06.18h1.63l-1.67-1.5c.04.19.06.34.08.46.07.51.06.69.02.86Z"
     id="path4030" />
  <path
     class="cls-11"
     d="M66.12,145.96c1.7.77,3.16,1.48,4.87,2.26v-3.2h-4.83c0,.1-.02.93-.04.94Z"
     id="path4032" />
  <path
     class="cls-33"
     d="M80.13,103.12c-4.74,0-9.48,0-14.22,0-.32,0-.68.11-.69-.45-.05-4.44,1.12-8.43,4.29-11.67,3.02-3.08,6.79-4.52,11.05-4.55,8.81-.07,17.63-.03,26.44-.04.87,0,.87,0,.87-.9,0-5.26,0-10.53-.01-15.79,0-.18-.02-.36-.03-.54h-23.69c-.01.22-.03.4-.03.59,0,2.53,0,5.05,0,7.58,0,.34,0,.58-.47.62-1.43.12-2.87.22-4.29.47-4.89.85-9.46,2.52-13.56,5.37-4.81,3.35-7.75,7.89-8.58,13.69-.96,3.49-.93,7.21-.46,10.65.78.58,1.28,1.52,1.31,2.63.01.61-.16,1.18-.47,1.68,1.24,5.03,3.04,8.68,3.04,8.68.07,0,.2,0,.38,0,.07-1.82,1.37-3.13,3.16-3.13,1.82,0,3.19,1.33,3.29,3.15,13.11.06,40.36.19,40.36.19v-18.23h-1.05c-8.88,0-17.75,0-26.63,0Z"
     id="path4034" />
</svg>
