<?xml version="1.0" encoding="UTF-8"?>
<svg width="1200pt" height="1200pt" version="1.1" viewBox="0 0 1200 1200" xmlns="http://www.w3.org/2000/svg">
 <g fill="#fff">
  <path d="m149.34 506.88-0.19141-0.023438s67.539 70.598 67.539 164.91c0 78.91-6.5586 270.76-8.7031 331.36h93.262l13.652-129.94c0.5625-5.3477 5.0742-9.4102 10.453-9.4102 5.6719 0 10.32 4.5 10.504 10.168l4.2109 129.18h88.207c-0.12891-71.84-4.4844-218.48-7.8047-311.57 0.14453-12.379 2.3359-24.715 7.5781-35.93 16.793-35.93 13.977-73.734 9.5391-97.914-3.3516-18.27-0.082032-37.094 9.5625-52.965l14.441-23.773-0.10156 0.09375c48.969-62.102 58.273-147.7 59.352-194.47 0.42969-18.625-14.707-33.887-33.336-33.887-17.891 0-32.633 14.066-33.301 31.945-2.375 63.559-23.508 199.8-161.05 199.8s-158.68-136.24-161.05-199.8c-0.66797-17.879-15.41-31.945-33.301-31.945-18.629 0-33.766 15.262-33.336 33.887 1.2383 53.703 13.359 158.54 83.875 220.27z"/>
  <path d="m210.32 317.43c-8.4805 14.098-13.445 30.547-13.445 48.195 0 51.777 41.973 93.75 93.75 93.75s93.75-41.973 93.75-93.75-41.973-93.75-93.75-93.75c-9.8125 0-19.27 1.5234-28.164 4.3203-0.20313-23.125-18.977-41.82-42.148-41.82-23.301 0-42.188 18.887-42.188 42.188 0 19.84 13.746 36.363 32.195 40.867zm80.305 123.2c-32.734 0-60.566-21.117-70.777-50.418 64.586-1.9102 87.152-39.621 94.836-69.422 10.453 5.4805 24.828 10.613 43.375 12.23 4.7969 9.875 7.5664 20.91 7.5664 32.609 0 41.355-33.645 75-75 75z"/>
  <path d="m628.9 638.64c0.070312 0 0.13281-0.011719 0.20312-0.011719 17.148 22.094 43.891 36.367 74.023 36.367 51.777 0 93.75-41.973 93.75-93.75s-41.973-93.75-93.75-93.75c-23.18 0-44.355 8.457-60.723 22.395l-0.12109 0.03125-0.97266 0.96484-7.8164 7.7422-58.047 57.508c-5.7812 5.9727-6.9492 14.992-2.8828 22.242 8.832 15.727 27.262 40.262 56.336 40.262zm74.227 17.605c-20.441 0-38.98-8.2422-52.523-21.551 26.656-10.48 38.586-39.746 51.629-60.594 15.094-24.121 43.734-35.301 59.289-39.805 10.367 12.863 16.605 29.184 16.605 46.949 0 41.355-33.645 75-75 75z"/>
  <path d="m899.01 536.32c-19.242-7.5781-40.992 1.7852-48.715 20.969l-25.992 64.598c-19.746 49.082-67.34 81.234-120.24 81.234h-39.141c-33.504 0-64.465 17.879-81.203 46.902l-106.56 184.71c-9.1328 15.832-3.543 36.074 12.418 44.977 14.445 8.0586 32.633 4.082 42.398-9.2734l94.492-129.21-24.977 161.9h7.8867c88 0 168.4-33 229.62-87.199 1.2773-70.562-10.664-112.31-10.664-112.31l91.574-217.68c8.1953-19.473-1.2422-41.871-20.895-49.613z"/>
  <path d="m1140.4 357.34-62.539-126.88c-2.6758-106.7-84.215-171.59-87.742-174.34-3.3867-2.6367-8.1289-2.6367-11.516 0-3.4336 2.6719-80.75 64.242-87.344 165.91l-66.691 135.31c-6.1445 12.457 2.9258 27.035 16.816 27.035h49.227v18.75c0 5.1758 4.1914 9.375 9.375 9.375h44.945l-9.1797 24.879c-2.2578 6.1211 2.2695 12.621 8.7969 12.621h30.438v206.25c0 115.38-53.496 218.21-136.98 285.22-62.625 50.266-142.1 80.406-228.65 80.406h-515.62c-10.355 0-18.75 8.3945-18.75 18.75v75.75c0 10.41 8.457 18.75 18.73 18.75 0.35156 0 0.70703-0.007812 1.0625-0.03125l512.71-28.57c219.41-12.184 390.11-195.34 386.84-415.07l-0.58984-39.555v-201.9h30.438c6.5273 0 11.055-6.5 8.7969-12.621l-9.1797-24.879h44.945c5.1836 0 9.375-4.1992 9.375-9.375v-18.75h45.473c13.891 0 22.957-14.578 16.816-27.039zm-146.66 36.414v-75c0-5.1758-4.1914-9.375-9.375-9.375s-9.375 4.1992-9.375 9.375v75h-65.625v-158.03c0-14.754 1.8008-28.656 4.7422-41.738 11.633-51.742 42.223-89.762 60.883-108.96v64.973c0 5.1758 4.1914 9.375 9.375 9.375s9.375-4.1992 9.375-9.375v-65.023c16.535 16.961 42.48 48.656 56.277 91.727 5.7109 17.82 9.3477 37.562 9.3477 59.02v158.03z"/>
  <path d="m984.38 187.5c-25.891 0-46.875 20.988-46.875 46.875s20.984 46.875 46.875 46.875 46.875-20.988 46.875-46.875-20.984-46.875-46.875-46.875zm0 75c-15.508 0-28.125-12.617-28.125-28.125s12.617-28.125 28.125-28.125 28.125 12.617 28.125 28.125-12.617 28.125-28.125 28.125z"/>
 </g>
</svg>
