<svg xmlns="http://www.w3.org/2000/svg" xmlns:xlink="http://www.w3.org/1999/xlink" width="300" zoomAndPan="magnify" viewBox="0 0 224.87999 225" height="300" preserveAspectRatio="xMidYMid meet" version="1.0"><defs><clipPath id="id1"><path d="M 0 0.0585938 L 224.761719 0.0585938 L 224.761719 224.9375 L 0 224.9375 Z M 0 0.0585938 " clip-rule="nonzero"/></clipPath></defs><g clip-path="url(#id1)"><path fill="#1a2f69" d="M 112.441406 0.0585938 C 50.351562 0.0585938 0 50.410156 0 112.5 C 0 174.589844 50.351562 224.941406 112.441406 224.941406 C 174.527344 224.941406 224.878906 174.589844 224.878906 112.5 C 224.878906 50.410156 174.527344 0.0585938 112.441406 0.0585938 Z M 112.441406 0.0585938 " fill-opacity="1" fill-rule="nonzero"/></g><path fill="#ffffff" d="M 145.023438 122.652344 C 143.757812 119.523438 141.898438 116.804688 139.40625 114.402344 C 136.914062 112.046875 133.785156 110.144531 130.023438 108.648438 C 134.464844 106.472656 137.773438 103.707031 139.996094 100.261719 C 142.214844 96.863281 143.347656 92.96875 143.347656 88.660156 C 143.347656 85.261719 142.714844 82.042969 141.445312 79.007812 C 140.175781 75.972656 138.183594 73.253906 135.554688 70.851562 C 132.878906 68.449219 129.570312 66.546875 125.582031 65.183594 C 121.59375 63.824219 116.972656 63.144531 111.714844 63.144531 C 105.460938 63.144531 100.023438 64.324219 95.355469 66.679688 C 90.6875 69.039062 87.152344 72.164062 84.75 76.0625 C 82.347656 79.960938 81.125 84.128906 81.125 88.570312 C 81.125 97.726562 85.65625 104.433594 94.71875 108.691406 C 83.480469 113.132812 77.859375 121.292969 77.859375 133.210938 C 77.859375 138.785156 79.175781 143.816406 81.847656 148.304688 C 84.523438 152.789062 88.421875 156.324219 93.675781 158.90625 C 98.890625 161.492188 105.1875 162.761719 112.53125 162.761719 C 119.601562 162.761719 125.765625 161.492188 130.976562 158.90625 C 136.1875 156.324219 140.175781 152.789062 142.851562 148.257812 C 145.570312 143.726562 146.882812 138.648438 146.882812 133.074219 C 146.929688 129.222656 146.292969 125.734375 145.023438 122.652344 M 102.0625 79.6875 C 104.597656 77.105469 107.953125 75.789062 112.121094 75.789062 C 114.886719 75.789062 117.289062 76.378906 119.417969 77.601562 C 121.550781 78.828125 123.179688 80.457031 124.359375 82.496094 C 125.539062 84.582031 126.125 86.9375 126.125 89.523438 C 126.125 91.472656 125.808594 93.238281 125.128906 94.871094 C 124.449219 96.5 123.542969 97.863281 122.320312 99.039062 C 121.097656 100.21875 119.644531 101.125 117.921875 101.804688 C 116.203125 102.484375 114.34375 102.800781 112.257812 102.800781 C 108.132812 102.800781 104.78125 101.53125 102.152344 99.039062 C 99.523438 96.546875 98.253906 93.421875 98.253906 89.660156 C 98.253906 85.625 99.523438 82.269531 102.0625 79.6875 M 126.625 141.640625 C 125.21875 144.316406 123.273438 146.355469 120.777344 147.804688 C 118.285156 149.253906 115.523438 149.980469 112.394531 149.980469 C 109.359375 149.980469 106.59375 149.253906 104.101562 147.804688 C 101.609375 146.355469 99.660156 144.316406 98.210938 141.6875 C 96.757812 139.058594 96.035156 136.019531 96.035156 132.578125 C 96.035156 127.183594 97.574219 122.96875 100.609375 119.976562 C 103.648438 116.988281 107.453125 115.445312 111.941406 115.445312 C 115.113281 115.445312 118.015625 116.125 120.550781 117.484375 C 123.136719 118.84375 125.128906 120.839844 126.535156 123.375 C 127.941406 125.960938 128.664062 128.953125 128.664062 132.394531 C 128.664062 135.839844 128.03125 139.011719 126.625 141.640625 " fill-opacity="1" fill-rule="nonzero"/></svg>