<?xml version="1.0" encoding="UTF-8"?>
<svg width="1200pt" height="1200pt" version="1.1" viewBox="0 0 1200 1200" xmlns="http://www.w3.org/2000/svg">
 <path d="m590.52 545.76c7.1992-6.1211 36 7.0781 49.559 11.281 48 15.359 86.281 0 90.84-37.441 3.4805-40.922-31.199-46.441-54.121-50.039-11.398-1.8008-46.32-18.84-96-52.078l0.003906-0.003906c-12.82-8.5312-21.379-22.141-23.512-37.395-2.1328-15.25 2.3633-30.684 12.352-42.406l9.7188-12c44.039-52.922 86.398-113.04 124.8-161.28 24.961-30.359 64.922-85.801 94.441-89.398 5.4883-0.48828 10.922 1.4414 14.879 5.2812 26.16 22.32 3.4805 61.559-50.879 130.56-120 156-139.92 183.12-113.4 206.28 15.719 10.199 30.48-5.1602 48-22.801 13.559-14.16 30.84-33.48 50.879-55.801 46.199-52.922 133.08-144 159.24-168.72 18.961-18.359 44.52-37.32 58.32-23.398 7.4414 7.3203 22.68 22.68-20.16 69.602-0.96094 1.0781-98.039 108.84-144.84 162.48-27.602 32.398-48 51.238-67.199 75.121v-0.003907c-4.1172 4.4375-6.4062 10.266-6.4062 16.32 0 6.0508 2.2891 11.879 6.4062 16.316 23.039 20.398 38.641 4.1992 125.4-72 54.719-49.199 78.48-74.398 116.16-110.52 10.68-10.801 56.281-46.68 74.16-26.398 12 12.602 12 30.48-29.762 76.801-44.52 49.078-123.72 135.72-146.4 159-48 49.801-54.961 60-54 73.32 0.55078 6.4961 3.875 12.441 9.1211 16.32 15.238 12 30.719-0.96094 39.961-8.2812 11.039-7.6797 60-53.762 96-88.441 36-34.68 88.32-84.84 115.32-84.84 54.602 13.32-61.32 113.64-152.64 202.08-59.281 56.16-118.56 124.92-177.72 176.76-79.441 69.48-149.88 107.04-177.84 115.2-61.441 18.238-104.04 39.121-130.2 63.961-66.605 62.281-149.88 150.36-150.72 151.2-3.3984 3.4492-5.2656 8.1172-5.1797 12.957 0.085938 4.8398 2.1172 9.4375 5.6367 12.762 3.5156 3.3242 8.2227 5.0938 13.059 4.9062s9.3945-2.3164 12.645-5.9023c0.83984-0.83984 84-88.199 148.08-149.52 21.602-20.641 60-39.238 115.56-55.559 37.199-10.922 112.92-54 191.28-122.64 61.199-53.762 119.04-120.96 178.8-177.72 124.08-121.08 214.44-190.08 163.56-249.12-8.9453-9.5156-21.379-14.973-34.438-15.117-20.398 0-42.961 11.039-66.48 28.32 30.359-37.078 115.32-103.56 60-161.64-24-24-55.559-16.441-72-9.6016-38.762 18.359-49.562 33.48-76.801 59.281-14.762 14.641-33.359 32.879-57.238 55.199 47.281-53.281 103.44-115.68 104.16-116.4 43.801-48 50.16-88.078 19.078-119.28-7.2852-7.3203-16.547-12.355-26.648-14.488-10.105-2.1289-20.613-1.2656-30.23 2.4883-19.52 7.6641-37.133 19.5-51.602 34.68-20.16 19.441-66.359 66.602-112.56 116.88 39.602-54.84 135.12-147 67.559-207.84-11.371-10.168-26.449-15.164-41.641-13.801-40.078 3.8398-76.078 48.961-108 88.68-18.602 22.922-32.039 40.32-54.359 70.199-24 32.398-51.961 69.238-81.359 104.76-22.512 21.016-33.656 51.504-30 82.082 3.5742 25.414 17.855 48.082 39.238 62.277 24 15.84 82.32 53.16 110.64 57.602 8.3242 0.53125 16.473 2.6484 24 6.2383 0.20703 1.7539 0.20703 3.5273 0 5.2812-0.20312 2.7656-1.7188 5.2656-4.0781 6.7188-2.8789 1.9219-14.16 7.4414-40.199 0-30.48-9.6016-65.16-22.441-85.078-4.5586-19.922 17.879-12 40.559-10.801 53.281 3.2383 21.238 7.3203 48 13.801 74.398 9 37.922 21 72.961 29.398 107.04 3.2383 12 12.84 42.48 6.3594 48.719-9.6016 9.1211-24-41.039-27.238-52.68-26.398-98.641-33.961-106.92-43.922-112.08-5.0586-2.7227-11.039-3.1602-16.441-1.1992-15.719 5.7617-12.961 23.16-10.922 36 7.4414 38.879 24 122.76 26.879 150.84 1.6797 13.441 0.96094 19.441-0.71875 20.398-1.6797 0.96094-3.2383 0-4.1992-1.5586-3.9844-6.0898-6.4531-13.043-7.1992-20.281-0.96094-5.7617-22.32-109.32-28.078-139.44v0.003907c-0.84766-5.918-2.0898-11.77-3.7227-17.52-1.1992-4.9883-4.1914-9.3555-8.4062-12.277-4.2109-2.9219-9.3555-4.1875-14.441-3.5625-5.0898 0.625-9.7695 3.1016-13.152 6.957-6.9609 8.1602-8.0391 17.762-3 74.281 2.5195 27.961 5.2812 48 7.3203 63.238 0.96094 6.4805 1.6797 12 2.1602 16.559 1.8008 16.199 0 26.762-3.9609 27.602-3.9609 0.83984-10.441-21.719-12-27.719-6.3594-32.398-17.281-89.879-19.801-105.84-5.3984-34.32-7.8008-43.68-17.16-49.68h0.003906c-4.9258-3.1367-10.973-3.9688-16.562-2.2812-5.3711 2.0039-9.8516 5.8633-12.625 10.883-2.7734 5.0195-3.6562 10.863-2.4922 16.477 0 6.8398 3.6016 40.559 6.6016 65.641 2.1602 17.281 6.4805 51.602 2.3984 62.762-4.2422-8.7852-7.0781-18.18-8.4023-27.84-3.9609-20.52-7.4414-49.922-12-87.121-4.6797-40.32-14.398-84.602-17.398-123.6v0.003906c-3.7461-34.047-1.5156-68.484 6.5977-101.76 12-32.879 19.441-61.68 7.8008-94.199-22.32-72-48-118.92-93-135-20.625-7.543-43.578-5.1055-62.16 6.5977-51.48 32.16-35.398 73.078-9 123.12 30.238 58.559 42.602 313.8 34.801 387.36-1.2891 7.4336-4.3789 14.438-9 20.402-57.238 62.762-144 140.04-144 140.88-3.8555 3.0938-6.2695 7.6406-6.6758 12.57-0.40234 4.9258 1.2383 9.8047 4.5391 13.488 3.3047 3.6797 7.9727 5.8398 12.918 5.9727 4.9453 0.13281 9.7227-1.7734 13.219-5.2734 3.2383-2.8789 90.48-80.879 148.32-144.72 9.125-11.664 15.004-25.531 17.039-40.199 3.957-72 2.6719-144.19-3.8398-216-4.4414-55.441-14.879-153.48-35.52-191.76-31.078-58.801-23.16-63.84-3.8398-75.84 9.3359-5.875 20.887-7.0312 31.199-3.1172 13.32 4.6797 38.641 20.762 58.199 76.078 4.1992 12 8.5195 24.84 12.719 36.961h0.003906c3.6719 10.219 4.7031 21.195 3 31.918-2.3516 12.91-5.9297 25.57-10.68 37.801-9.9219 38.16-12.848 77.801-8.6406 117 3.1211 40.922 12.719 84 17.52 125.16 12 91.68 12 149.88 60.719 147.72 9.1406-1.0156 17.426-5.8555 22.801-13.316 5.7617 24 22.441 45.84 48.84 41.641v-0.003906c6.8633-1.0234 13.316-3.9023 18.664-8.3203 5.3516-4.418 9.3945-10.211 11.695-16.758 2.7031 9.9688 8.9492 18.609 17.562 24.309 8.6133 5.6953 19.008 8.0625 29.238 6.6523 11.039-1.5586 36-10.199 31.559-55.922 5.0039 6.4375 11.793 11.254 19.52 13.859 7.7227 2.6016 16.043 2.875 23.922 0.78125 41.398-10.801 31.199-58.32 21.48-93.238-9.7188-34.922-21.48-69.723-29.879-106.44-6.1211-25.199-9.9609-50.762-13.078-71.281-1.2031-7.5586-2.5234-17.641-0.003907-20.277z" fill="#192f69"/>
</svg>
