<?xml version="1.0" encoding="UTF-8"?>
<svg width="1200pt" height="1200pt" version="1.1" viewBox="0 0 1200 1200" xmlns="http://www.w3.org/2000/svg">
 <g fill="#192f69">
  <path d="m1165.9 48h-828.63c-11.367 0-21.473 10.105-21.473 21.473v468.63c0 11.367 10.105 21.473 21.473 21.473 11.367 0 21.473-10.105 21.473-21.473l0.003906-447.16h785.68v487.58h-564.63c-11.367 0-21.473 10.105-21.473 21.473s10.105 21.473 21.473 21.473h586.11c11.367 0 21.473-10.105 21.473-21.473v-530.53c0-11.367-8.8398-21.473-21.473-21.473z"/>
  <path d="m256.42 415.58c0 63.484-51.465 114.95-114.95 114.95s-114.95-51.465-114.95-114.95 51.461-114.95 114.95-114.95 114.95 51.461 114.95 114.95"/>
  <path d="m1100.2 766.74c0 56.508-45.809 102.31-102.32 102.31-56.508 0-102.32-45.805-102.32-102.31 0-56.508 45.809-102.32 102.32-102.32 56.508 0 102.32 45.809 102.32 102.32"/>
  <path d="m718.74 766.74c0 56.508-45.809 102.31-102.32 102.31s-102.32-45.805-102.32-102.31c0-56.508 45.809-102.32 102.32-102.32s102.32 45.809 102.32 102.32"/>
  <path d="m540.63 526.74 147.79-190.74c5.0508-6.3164 3.7891-15.156-2.5273-20.211-6.3164-5.0508-15.156-3.7891-20.211 2.5273l-146.53 192c-13.895-5.0547-30.312-2.5273-41.684 7.5781l-98.523 84.633-200.84-40.422c-2.5273 0-6.3164-1.2617-8.8438-1.2617-8.8438-1.2617-17.684-2.5273-27.789-2.5273h-2.5273c-65.684 0-120 45.473-120 102.32v324.63h241.26l0.003907-318.32 120 24c2.5273 0 5.0508 1.2617 8.8438 1.2617 10.105 0 20.211-3.7891 27.789-10.105l113.68-98.527c18.945-15.156 22.734-39.156 10.105-56.84z"/>
  <path d="m999.16 890.53h-2.5273c-72 0-128.84 40.422-128.84 90.949v5.0508h261.47v-5.0508c0.003907-50.527-58.102-90.949-130.1-90.949z"/>
  <path d="m617.68 890.53h-2.5273c-72 0-128.84 40.422-128.84 90.949v5.0508h261.47v-5.0508c-1.2578-50.527-59.363-90.949-130.1-90.949z"/>
  <path d="m1040.8 160.42h-517.89c-11.367 0-21.473 10.105-21.473 21.473 0 11.367 10.105 21.473 21.473 21.473h517.89c11.367 0 21.473-10.105 21.473-21.473 0-11.367-8.8438-21.473-21.473-21.473z"/>
  <path d="m1040.8 313.26h-262.74c-11.367 0-21.473 10.105-21.473 21.473s10.105 21.473 21.473 21.473h264c11.367 0 21.473-10.105 21.473-21.473-1.2617-12.629-10.105-21.473-22.734-21.473z"/>
  <path d="m1040.8 474.95h-324.63c-11.367 0-21.473 10.105-21.473 21.473s10.105 21.473 21.473 21.473h325.89c11.367 0 21.473-10.105 21.473-21.473-1.2617-12.633-10.105-21.473-22.734-21.473z"/>
 </g>
</svg>
