<?xml version="1.0" encoding="UTF-8"?>
<svg width="1200pt" height="1200pt" version="1.1" viewBox="0 0 1200 1200" xmlns="http://www.w3.org/2000/svg">
 <g fill="#192f69">
  <path d="m174 600c0-235.2 190.8-426 426-426h8.3984l-34.801 34.801c-12 12-12 30 0 42 6 6 13.199 8.3984 20.398 8.3984 7.1992 0 15.602-2.3984 20.398-8.3984l85.199-85.199c12-12 12-30 0-42l-85.199-85.199c-12-12-30-12-42 0s-12 30 0 42l34.801 34.801-7.1953-0.003906c-267.6 0-484.8 217.2-484.8 484.8 0 154.8 74.398 301.2 199.2 391.2 4.8008 3.6016 10.801 6 16.801 6 9.6016 0 18-3.6016 24-12 9.6016-13.199 7.1992-31.199-6-40.801-109.2-80.398-175.2-208.8-175.2-344.4z"/>
  <path d="m1084.8 600c0-154.8-74.398-301.2-199.2-391.2-13.199-9.6016-31.199-7.1992-40.801 6-9.6016 13.199-7.1992 31.199 6 40.801 109.2 80.398 175.2 208.8 175.2 344.4 0 235.2-190.8 426-426 426h-8.3984l34.801-34.801c12-12 12-30 0-42s-30-12-42 0l-85.199 85.199c-12 12-12 30 0 42l85.199 85.199c6 6 13.199 8.3984 20.398 8.3984s15.602-2.3984 20.398-8.3984c12-12 12-30 0-42l-34.801-34.801 9.6016 0.003906c267.6 0 484.8-217.2 484.8-484.8z"/>
  <path d="m508.8 600c-9.6016-18-26.398-32.398-45.602-39.602-18 14.398-40.801 24-67.199 24-25.199 0-48-8.3984-67.199-24-30 12-52.801 39.602-56.398 74.398l-8.3984 74.398c-1.1992 9.6016 4.8008 19.199 14.398 20.398 37.199 8.3984 76.801 12 117.6 12 15.602 0 31.199-1.1992 46.801-2.3984l6-51.602c5.9961-37.195 28.797-68.395 59.996-87.594z"/>
  <path d="m397.2 399.6c-43.199 0-79.199 34.801-79.199 79.199 0 43.199 34.801 79.199 79.199 79.199 43.199 0 79.199-34.801 79.199-79.199 0-44.402-36-79.199-79.199-79.199z"/>
  <path d="m926.4 634.8c-3.6016-33.602-26.398-62.398-56.398-74.398-18 14.398-42 24-67.199 24s-48-8.3984-67.199-24c-19.199 7.1992-34.801 21.602-45.602 39.602 31.199 18 54 50.398 58.801 88.801l6 51.602c15.602 1.1992 31.199 2.3984 46.801 2.3984 40.801 0 80.398-4.8008 117.6-12 9.6016-2.3984 15.602-10.801 14.398-20.398z"/>
  <path d="m802.8 399.6c-43.199 0-79.199 34.801-79.199 79.199 0 43.199 34.801 79.199 79.199 79.199 43.199 0 79.199-34.801 79.199-79.199 0-44.402-34.801-79.199-79.199-79.199z"/>
  <path d="m723.6 692.4c-3.6016-33.602-26.398-62.398-56.398-74.398-18 14.398-40.801 24-67.199 24-25.199 0-48-8.3984-66-24-30 12-52.801 39.602-56.398 74.398l-9.6055 75.602c-1.1992 9.6016 4.8008 19.199 14.398 20.398 37.199 8.3984 76.801 12 117.6 12s80.398-4.8008 117.6-12c9.6016-2.3984 15.602-10.801 14.398-20.398z"/>
  <path d="m600 457.2c-43.199 0-79.199 34.801-79.199 79.199 0 43.199 34.801 79.199 79.199 79.199 43.199 0 79.199-34.801 79.199-79.199 0-44.398-36-79.199-79.199-79.199z"/>
 </g>
</svg>
