<svg xmlns="http://www.w3.org/2000/svg" xmlns:xlink="http://www.w3.org/1999/xlink" width="300" zoomAndPan="magnify" viewBox="0 0 224.87999 225" height="300" preserveAspectRatio="xMidYMid meet" version="1.0"><defs><clipPath id="id1"><path d="M 0 0.0585938 L 224.761719 0.0585938 L 224.761719 224.9375 L 0 224.9375 Z M 0 0.0585938 " clip-rule="nonzero"/></clipPath></defs><g clip-path="url(#id1)"><path fill="#1a2f69" d="M 112.441406 0.0585938 C 50.351562 0.0585938 0 50.410156 0 112.5 C 0 174.589844 50.351562 224.941406 112.441406 224.941406 C 174.527344 224.941406 224.878906 174.589844 224.878906 112.5 C 224.878906 50.410156 174.527344 0.0585938 112.441406 0.0585938 Z M 112.441406 0.0585938 " fill-opacity="1" fill-rule="nonzero"/></g><path fill="#ffffff" d="M 145.253906 115.71875 C 143.664062 111.867188 141.492188 108.558594 138.679688 105.746094 C 135.871094 102.9375 132.652344 100.714844 128.9375 99.128906 C 125.21875 97.542969 121.277344 96.726562 117.015625 96.726562 C 111.714844 96.726562 105.914062 98.40625 99.613281 101.757812 L 103.375 80.230469 L 134.917969 80.230469 C 138.183594 80.230469 140.675781 79.507812 142.351562 78.101562 C 144.027344 76.695312 144.890625 74.839844 144.890625 72.527344 C 144.890625 67.269531 141.445312 64.640625 134.511719 64.640625 L 99.476562 64.640625 C 95.671875 64.640625 92.90625 65.503906 91.230469 67.226562 C 89.554688 68.945312 88.375 71.710938 87.785156 75.519531 L 82.210938 107.332031 C 81.710938 110.144531 81.484375 111.640625 81.484375 111.867188 C 81.484375 113.859375 82.347656 115.628906 84.023438 117.214844 C 85.699219 118.800781 87.648438 119.570312 89.78125 119.570312 C 91.773438 119.570312 94.3125 118.390625 97.394531 116.082031 C 100.476562 113.769531 102.832031 112.136719 104.464844 111.1875 C 106.09375 110.234375 108.8125 109.78125 112.621094 109.78125 C 115.703125 109.78125 118.511719 110.507812 121.050781 112 C 123.589844 113.496094 125.582031 115.71875 127.078125 118.753906 C 128.574219 121.746094 129.34375 125.371094 129.34375 129.632812 C 129.34375 133.574219 128.664062 137.109375 127.261719 140.191406 C 125.855469 143.273438 123.90625 145.71875 121.324219 147.488281 C 118.738281 149.253906 115.75 150.160156 112.347656 150.160156 C 108.632812 150.160156 105.28125 149.074219 102.242188 146.851562 C 99.25 144.675781 96.851562 141.597656 95.082031 137.652344 C 93.269531 133.347656 90.503906 131.21875 86.789062 131.21875 C 84.613281 131.21875 82.800781 131.988281 81.394531 133.527344 C 79.945312 135.070312 79.21875 136.699219 79.21875 138.421875 C 79.21875 141.277344 80.261719 144.542969 82.300781 148.347656 C 84.339844 152.15625 87.875 155.464844 92.769531 158.410156 C 97.710938 161.308594 104.144531 162.804688 112.078125 162.804688 C 119.148438 162.804688 125.402344 161.265625 130.839844 158.136719 C 136.277344 155.054688 140.402344 150.839844 143.304688 145.582031 C 146.160156 140.328125 147.609375 134.480469 147.609375 128.042969 C 147.652344 123.695312 146.882812 119.570312 145.253906 115.71875 " fill-opacity="1" fill-rule="nonzero"/></svg>