<svg xmlns="http://www.w3.org/2000/svg" xmlns:xlink="http://www.w3.org/1999/xlink" width="300" zoomAndPan="magnify" viewBox="0 0 224.87999 225" height="300" preserveAspectRatio="xMidYMid meet" version="1.0"><defs><clipPath id="id1"><path d="M 0 0.0585938 L 224.761719 0.0585938 L 224.761719 224.9375 L 0 224.9375 Z M 0 0.0585938 " clip-rule="nonzero"/></clipPath></defs><g clip-path="url(#id1)"><path fill="#1a2f69" d="M 112.441406 0.0585938 C 50.351562 0.0585938 0 50.410156 0 112.5 C 0 174.589844 50.351562 224.941406 112.441406 224.941406 C 174.527344 224.941406 224.878906 174.589844 224.878906 112.5 C 224.878906 50.410156 174.527344 0.0585938 112.441406 0.0585938 Z M 112.441406 0.0585938 " fill-opacity="1" fill-rule="nonzero"/></g><path fill="#ffffff" d="M 147.292969 126.910156 C 145.253906 125.960938 142.488281 125.507812 139.089844 125.507812 L 136.234375 125.507812 L 136.234375 74.160156 C 136.234375 66.453125 132.878906 62.601562 126.125 62.601562 C 124.042969 62.601562 122.273438 63.28125 120.777344 64.6875 C 119.285156 66.09375 117.425781 68.3125 115.113281 71.441406 L 79.945312 118.527344 C 78.992188 119.796875 78.132812 120.882812 77.496094 121.789062 C 76.816406 122.695312 76.183594 123.601562 75.59375 124.554688 C 74.960938 125.507812 74.507812 126.414062 74.191406 127.273438 C 73.871094 128.136719 73.738281 128.996094 73.738281 129.8125 C 73.738281 133.074219 74.777344 135.660156 76.910156 137.5625 C 78.992188 139.464844 82.164062 140.417969 86.378906 140.417969 L 119.691406 140.417969 L 119.691406 152.746094 C 119.691406 156.054688 120.460938 158.589844 122.003906 160.269531 C 123.542969 161.945312 125.539062 162.804688 128.03125 162.804688 C 130.566406 162.804688 132.5625 161.988281 134.058594 160.3125 C 135.554688 158.636719 136.324219 156.097656 136.324219 152.699219 L 136.324219 140.371094 L 140.355469 140.371094 C 143.710938 140.371094 146.25 139.78125 147.925781 138.605469 C 149.601562 137.425781 150.464844 135.566406 150.464844 132.984375 C 150.375 129.902344 149.332031 127.863281 147.292969 126.910156 M 119.644531 125.507812 L 91.09375 125.507812 L 119.644531 86.9375 Z M 119.644531 125.507812 " fill-opacity="1" fill-rule="nonzero"/></svg>