<?xml version="1.0" encoding="UTF-8"?>
<svg width="1200pt" height="1200pt" version="1.1" viewBox="0 0 1200 1200" xmlns="http://www.w3.org/2000/svg">
 <g fill="#fff">
  <path d="m338.88 803.45c-8.5703 42.238-17.363 109.63-24.227 168.7l19.004 117.71c2.9414 18.227 18.676 31.625 37.137 31.625 21.363 0 38.441-17.715 37.59-39.062-3.5078-88.262-12.125-305.3-17.141-433.56-21.004 50.809-43.512 110.96-52.363 154.58z"/>
  <path d="m588.65 486.05h-7.2578c-61.137-2.2734-115.86-26.605-183.24-124.15 0 0-26.625-40.051-74.34-40.051 0 0-63.59 0-87.852 55.871 0 0-56.727 114.16-49.723 429.47 0 0 2.6719 158.55 16.473 278.31 2.3672 20.543 19.812 35.984 40.492 35.984h0.003906c20.977-0.003907 38.516-15.863 40.551-36.742 4.0703-41.73 11.508-112.34 19.973-177.21 5.375-41.211 11.164-80.129 16.781-107.8 9.457-46.613 33.641-110.67 55.551-163.27 15.855-38.066 30.48-70.047 37.516-85.152-24.898-15.23-45.211-34.766-61.812-59.242-2.9102-4.2852-1.793-10.113 2.4922-13.02 4.2773-2.9062 10.109-1.7891 13.02 2.4961 40.77 60.105 106.72 88.406 217.44 92.512h4.0078c-11.688-11.816-18.125-27.453-18.117-44.082 0.003907-17.094 6.9062-32.594 18.047-43.91z"/>
  <path d="m206.02 230.96c-2.6289 6.0977-3.9102 13.043-3.2969 20.707 1.2461 15.539 11.059 29.766 25.285 36.145 16.184 7.2578 33.348 4.1602 45.551-5.4805 3.5625 2.5469 7.2656 4.957 11.262 7.0391 13.828 7.207 28.633 10.625 43.223 10.625 16.945 0 33.594-4.6133 48.098-13.246 4.125 10.863 13.023 19.789 24.469 21.875 17.184 3.1328 33.93-7.8242 37.816-25.02 1.0273-4.5508 1.0469-9.0938 0.21094-13.398-0.65625-3.3906 0.23438-6.9766 2.5234-9.5625 4.6836-5.2891 8.168-11.754 9.8359-19.137 5.1484-22.789-8.5078-45.383-30.691-51.73-2.3281-12.965-7.2852-25.387-14.75-36.348 6.3984-5.2852 10.953-12.914 11.848-22.113 1.3359-13.719-6.582-27.402-19.207-32.934-4.4102-1.9336-8.9102-2.8398-13.285-2.8594-8.8242-0.039063-17.008-4.4141-20.648-12.449-4.5977-10.133-13.688-18.066-25.391-20.715-13.492-3.0469-26.879 1.7305-35.508 11.324-5.9883 6.6602-15.043 8.7539-23.633 6.2109-3.1406-0.92969-6.4961-1.457-10.051-1.4961-14.719-0.17188-28.738 8.8711-34.395 22.461-2.0938 5.0312-3.0195 10.16-2.9336 15.133 0.16797 9.8008-5.4609 18.301-14.598 21.848-13.066 5.0664-23.445 16.27-26.77 30.988-3.4023 15.051 1.418 30.004 11.469 40.258 5.7188 5.8516 6.8047 14.359 3.5664 21.875zm188.6 9.9258c-4.6055 8.8398-10.852 16.418-18.172 22.609-13.301 11.246-30.285 17.75-48.406 17.75-12.105 0-23.734-2.8594-34.566-8.5-0.625-0.32422-1.1914-0.71875-1.8047-1.0586 15.918-6.793 27.082-22.574 27.082-40.973 0-18.895-11.809-34.945-28.414-41.414 1.0078-2.8516 1.6562-5.8711 1.6562-9.0664 0-4.3945-1.1289-8.4883-2.9727-12.168 8.4219-1.5703 15.398-7.0117 19.211-14.387 5.9727 5.4766 13.863 8.8984 22.605 8.8984 11.543 0 21.715-5.832 27.754-14.707 1.7031-2.5039 2.9453-5.3047 3.9258-8.2305 0.070312 0.035157 0.14453 0.058594 0.21094 0.097657 2.8984 4.4219 7.5273 7.5703 12.93 8.5391 4.5352 3.7188 8.4922 7.9453 11.961 12.496 6.3203 8.2969 10.809 17.77 13.254 27.793 4.1562 17.039 2.4648 35.578-6.2539 52.32z"/>
  <path d="m1018.4 403.85c-12.609-65.672-64.809-81.906-93.008-81.906-74.289 0-113.31 56.203-113.31 56.203l-29.035 38.223c-28.668 37.738-71.098 62.031-117.46 68.125-3.1094 0.41016-6.2344 0.72266-9.375 0.96875-4.5078 0.34766-9.0352 0.58984-13.598 0.58984h-9.3711-0.003906c-24.254 0.003907-43.914 19.66-43.926 43.914-0.011718 24.27 19.66 43.949 43.93 43.949h24.957c2.4688 0 4.9258-0.097656 7.3867-0.16797 61.375-1.707 120.36-24.574 166.82-64.93 11.859-10.969 22.422-23.629 30.164-38.191 2.4258-4.5703 8.1016-6.3164 12.68-3.8711 4.5703 2.4297 6.3086 8.1055 3.8711 12.68-11.691 21.98-28.648 39.961-47.07 54.477-3.2383 59.238-19.453 136.02-29.676 184.33-7.6719 36.246-13.59 100.19-16.777 140.23-1.8398 23.094-1.5039 46.27 0.95312 69.305l17.074 160.04c1.9961 18.711 17.785 32.906 36.605 32.906 20.379 0 36.879-16.555 36.812-36.93l-0.51562-159.38c-0.0625-20.012 2.0078-39.973 6.1797-59.547l21.395-100.36c0.92578-4.3359 4.7578-7.3477 9.0664-7.3477 0.44922 0 0.90625 0.03125 1.3633 0.10156 4.8516 0.71484 8.3125 5.0391 7.8945 9.9219-2.1172 24.926-6.2539 72.457-8.8125 101.81-1.4688 16.867-1.4141 33.809 0.16797 50.668l15.789 168.27c1.7422 18.582 17.344 32.785 36.008 32.785h0.89844c20.758 0 37.461-16.613 37.5-37.203 0.082031-43.766 0.23047-115.7 0.31641-157.12 0.042969-20.793 2.3828-41.41 7.0039-61.684 11.098-48.715 31.617-144.96 31.617-190.74 0-52-5.4883-90.781-8.0391-132.08-6.25-101.29-16.473-138.05-16.473-138.05z"/>
  <path d="m1059 113.96-15.055-20.18c-13.277-17.797-38.465-21.457-56.262-8.1836-14.25 10.633-19.254 28.859-13.938 44.852-15.465-11.238-34.43-17.945-55.008-17.945-51.777 0-93.75 41.973-93.75 93.75s41.973 93.75 93.75 93.75 93.75-41.973 93.75-93.75c0-11.938-2.3203-23.312-6.3867-33.812 13.566 8.1367 31.25 7.8242 44.715-2.2227 17.797-13.273 21.457-38.465 8.1836-56.258zm-140.26 167.29c-41.355 0-75-33.645-75-75 0-23.801 11.18-45.004 28.523-58.754 11.723 23.398 44.109 69.102 119.55 75.402-7.6055 33.359-37.449 58.352-73.074 58.352z"/>
 </g>
</svg>
