<svg xmlns="http://www.w3.org/2000/svg" xmlns:xlink="http://www.w3.org/1999/xlink" width="300" zoomAndPan="magnify" viewBox="0 0 224.87999 225" height="300" preserveAspectRatio="xMidYMid meet" version="1.0"><defs><clipPath id="id1"><path d="M 0 0.0585938 L 224.761719 0.0585938 L 224.761719 224.9375 L 0 224.9375 Z M 0 0.0585938 " clip-rule="nonzero"/></clipPath></defs><g clip-path="url(#id1)"><path fill="#1a2f69" d="M 112.441406 0.0585938 C 50.351562 0.0585938 0 50.410156 0 112.5 C 0 174.589844 50.351562 224.941406 112.441406 224.941406 C 174.527344 224.941406 224.878906 174.589844 224.878906 112.5 C 224.878906 50.410156 174.527344 0.0585938 112.441406 0.0585938 Z M 112.441406 0.0585938 " fill-opacity="1" fill-rule="nonzero"/></g><path fill="#ffffff" d="M 126.351562 65.957031 C 124.949219 64.144531 123.046875 63.238281 120.6875 63.238281 C 118.605469 63.238281 117.199219 63.644531 116.429688 64.414062 C 115.65625 65.230469 114.070312 67.316406 111.578125 70.804688 C 109.085938 74.25 106.277344 77.375 103.058594 80.1875 C 99.839844 82.996094 95.582031 85.625 90.234375 88.164062 C 86.652344 89.839844 84.160156 91.199219 82.710938 92.285156 C 81.304688 93.328125 80.578125 95.007812 80.578125 97.273438 C 80.578125 99.222656 81.304688 100.941406 82.753906 102.4375 C 84.207031 103.933594 85.835938 104.660156 87.695312 104.660156 C 91.59375 104.660156 99.160156 100.355469 110.402344 91.699219 L 110.402344 152.109375 C 110.402344 155.644531 111.214844 158.320312 112.847656 160.132812 C 114.480469 161.945312 116.65625 162.851562 119.375 162.851562 C 125.445312 162.851562 128.484375 158.410156 128.484375 149.527344 L 128.484375 73.480469 C 128.484375 70.308594 127.757812 67.769531 126.351562 65.957031 " fill-opacity="1" fill-rule="nonzero"/></svg>