<?xml version="1.0" encoding="UTF-8"?>
<svg width="1200pt" height="1200pt" version="1.1" viewBox="0 0 1200 1200" xmlns="http://www.w3.org/2000/svg">
 <g fill="#fff">
  <path d="m161.39 528.11c5.9883 5.5391 12.723 10.449 20.305 14.398 13.832 7.207 28.637 10.621 43.227 10.621 25.715 0 50.715-10.668 68.59-29.852 9.3438 7.9727 21.438 12.812 34.68 12.812 29.543 0 53.492-23.949 53.492-53.492 0-24.746-16.828-45.512-39.648-51.617 8.4688-8.3945 13.727-20.02 13.727-32.883 0-25.582-20.738-46.32-46.32-46.32-1.0508 0-2.0352 0.24219-3.0703 0.30859 0.58203-3.4062 0.85156-6.918 0.74219-10.512-0.86328-28.816-26.004-51.027-54.828-51.027h-19.73c-19.27 0-36.102 10.363-45.27 25.812-3.7109 6.25-10.746 9.668-17.883 8.2891-9.9883-1.9258-20.707-1.7969-31.797 1.0469-26.961 6.9141-48.094 29.438-53.004 56.832-2.7031 15.07-0.70312 29.453 4.7422 42.004 3.1523 7.2695 0.90625 15.465-5.2305 20.48-11.816 9.6484-19.363 24.328-19.363 40.773v13.438c0 29.078 23.57 52.648 52.648 52.648 18.406-0.003907 34.582-9.4609 43.992-23.762zm63.531 6.2695c-12.105 0-23.734-2.8594-34.566-8.5-8.3086-4.3281-15.398-10.055-21.281-16.676 0.62109-3.2344 0.97266-6.5664 0.97266-9.9844v-13.438c0-1.6172-0.078125-3.2109-0.22266-4.7891-0.72266-7.7031 4.3984-14.668 11.637-17.398 23.309-8.7812 40.902-29.191 45.645-54.18 1.5039-7.918 8.5391-13.574 16.598-13.574h10.785c3.0156 0 5.9492-0.31641 8.8242-0.80078 0.035156 0.019532 0.070312 0.042969 0.10938 0.0625 16.988 10.148 28.621 26.121 33.656 44.039 0.34375 1.2266 0.69141 2.4531 0.97266 3.6953 3.8008 16.727 1.9688 34.816-6.5586 51.184-2.7773 5.332-6.2305 10.129-10.059 14.535-14.051 16.172-34.43 25.824-56.512 25.824z"/>
  <path d="m238.1 953.14c-52.121-19.039-92.715-58.414-113.66-107.9 1.2695 52.609 0.28125 114.05-7.3047 165.82 0.003906 0.007812-4.9688 39.613-10.336 73.883-0.85938 5.4883 0.65625 10.832 4.2656 15.051 3.6172 4.2305 8.6797 6.5586 14.258 6.5586h198.32c5.0977 0 9.8633-2.0078 13.422-5.6562 3.5586-3.6484 5.4492-8.4648 5.3203-13.559l-2.4141-96.969z"/>
  <path d="m401.35 901.46-45.32-19.547-9.4883-4.0938-53.395-23.031c-29.27-12.625-51.387-38.617-59.16-69.535l-8.3984-33.43c-0.64844-2.5859-0.12891-5.1641 1.1836-7.2539 1.2383-1.9727 3.1836-3.5117 5.6172-4.125 5.0078-1.2461 10.117 1.7852 11.379 6.8008l8.4062 33.426c6.3633 25.297 24.453 46.562 48.414 56.898l35.973 15.52-0.082032-3.2539c-0.11719-4.793 1.6016-9.4492 4.8086-13.012 0.066406-0.074218 1.9609-2.2266 4.7578-5.9531 8.4766-11.281 25.309-37.082 25.309-64 0-14.82-4.7227-33.414-10.641-50.801-6.9219-20.348-15.48-39.031-20.09-47.965-16.457-32.586-35.238-53.641-53.129-67.285-0.25781-0.19531-0.50781-0.35547-0.76563-0.54688-28.672-21.559-54.926-24.137-65.398-24.137-2.5664 0-4.0156 0.15234-4.0312 0.15625-0.39844 0.042969-0.97656 0.09375-1.375 0.11328-0.33984 0.019531-43.059 2.6953-71.848 36.184-13.586 15.805-22.133 36.152-25.73 60.688v36.344l10.711 81.746c8.6523 66.062 52.898 121.3 115.48 144.16l94.945 34.699 9.4609 3.457 9.4688 3.4609 11.184 4.0859c11.453 4.1836 24.16 3.3047 34.91-2.4258 10.758-5.7227 18.602-15.785 21.523-27.613 5.0508-20.473-5.3203-41.383-24.676-49.73z"/>
  <path d="m542.37 537.18c-1.6797 12.289-6.4961 23.984-14.309 34.039-7.8438 10.094-18.035 17.609-29.473 22.258l26.41 14.723v77.027c-6.4219-1.4766-13.242-1.6367-20.098 0.16797l-123.84 32.613c5.1055 16.375 9.0312 33.781 9.0312 48.855 0 20.125-7.3867 39.133-15.355 53.855l150.26-53.098v338.62c0 5.1836 4.1914 9.375 9.375 9.375s9.375-4.1914 9.375-9.375v-348.73c10.543-9.4688 16.012-23.867 13.461-38.551-1.6953-9.75-6.6719-17.977-13.461-24.059v-76.254l49.211 27.438c19.512 10.879 39.039-14.242 23.68-30.469z"/>
  <path d="m439.35 568.98c9.6094 7.4688 20.988 11.086 32.285 11.086 2.4102 0 4.8047-0.22266 7.1914-0.54688 13.148-1.8047 25.645-8.4961 34.434-19.805 8.7891-11.309 12.191-25.07 10.691-38.258-1.543-13.598-8.3008-26.59-19.957-35.648-9.6094-7.4688-20.988-11.086-32.285-11.086-15.703 0-31.242 6.9922-41.625 20.352-17.852 22.965-13.703 56.059 9.2656 73.906z"/>
  <path d="m813.59 444.3c-50.141 0-88.938 43.938-82.734 93.691l7.0547 56.574c0.57031 4.5586 2.793 8.75 6.2461 11.781l103.49 90.727c11.336 9.9414 29.176 3.1094 30.977-11.859l17.746-147.58c5.9648-49.641-32.789-93.332-82.781-93.332z"/>
  <path d="m1118.1 778.55-8.7461-20.168c-3.418-7.8789-4.4648-16.578-3.0156-25.043l7.0156-41.008c4.6133-26.965-16.125-51.605-43.48-51.66l-64.609-0.13672c-27.328-0.058594-48.164 24.449-43.711 51.41l6.8477 41.441c1.3633 8.2578 0.35547 16.73-2.9062 24.438l-7.5898 17.93c-3.1445 7.4258-1.1875 16.027 4.8555 21.363l127.74 112.79c12.102 10.684 31.145 2.1016 31.16-14.039l0.097657-99.664c0-6.0703-1.2422-12.078-3.6562-17.648z"/>
  <path d="m652.49 366.86c-3.4141-7.8789-4.4648-16.578-3.0156-25.043l7.0156-41.008c4.6133-26.965-16.125-51.605-43.48-51.66l-64.609-0.13672c-27.328-0.058594-48.164 24.445-43.711 51.41l6.8438 41.441c1.3633 8.2578 0.35547 16.73-2.9062 24.438l-7.5742 17.895c-3.1484 7.4414-1.1758 16.062 4.8945 21.395l127.73 112.18c12.109 10.637 31.105 2.0469 31.121-14.07l0.097656-99.012c0.003907-6.0781-1.2383-12.094-3.6602-17.672z"/>
  <path d="m635.14 121.93c20.68 29.766 13.312 70.66-16.453 91.336-29.766 20.68-70.66 13.312-91.336-16.453-20.68-29.766-13.312-70.66 16.453-91.336 29.766-20.68 70.66-13.312 91.336 16.453"/>
  <path d="m869.52 121.93c20.68 29.766 13.312 70.656-16.453 91.336-29.766 20.68-70.66 13.312-91.336-16.453-20.68-29.766-13.312-70.66 16.453-91.336 29.766-20.68 70.66-13.312 91.336 16.453"/>
  <path d="m869.52 318.81c20.68 29.766 13.312 70.656-16.453 91.336-29.766 20.68-70.66 13.312-91.336-16.453-20.68-29.766-13.312-70.66 16.453-91.336 29.766-20.68 70.66-13.312 91.336 16.453"/>
  <path d="m1094.5 121.93c20.68 29.766 13.312 70.656-16.453 91.336-29.766 20.68-70.66 13.312-91.336-16.453-20.68-29.766-13.312-70.66 16.453-91.336 29.766-20.68 70.66-13.312 91.336 16.453"/>
  <path d="m1094.5 318.81c20.68 29.766 13.312 70.656-16.453 91.336-29.766 20.68-70.66 13.312-91.336-16.453-20.68-29.766-13.312-70.66 16.453-91.336 29.766-20.68 70.66-13.312 91.336 16.453"/>
  <path d="m1094.5 506.31c20.68 29.766 13.312 70.66-16.453 91.336-29.766 20.68-70.66 13.312-91.336-16.453-20.68-29.766-13.312-70.66 16.453-91.336 29.766-20.68 70.66-13.312 91.336 16.453"/>
 </g>
</svg>
