<svg xmlns="http://www.w3.org/2000/svg" xmlns:xlink="http://www.w3.org/1999/xlink" width="300" zoomAndPan="magnify" viewBox="0 0 224.87999 225" height="300" preserveAspectRatio="xMidYMid meet" version="1.0"><defs><clipPath id="id1"><path d="M 0 0.0585938 L 224.761719 0.0585938 L 224.761719 224.9375 L 0 224.9375 Z M 0 0.0585938 " clip-rule="nonzero"/></clipPath></defs><g clip-path="url(#id1)"><path fill="#1a2f69" d="M 112.441406 0.0585938 C 50.351562 0.0585938 0 50.410156 0 112.5 C 0 174.589844 50.351562 224.941406 112.441406 224.941406 C 174.527344 224.941406 224.878906 174.589844 224.878906 112.5 C 224.878906 50.410156 174.527344 0.0585938 112.441406 0.0585938 Z M 112.441406 0.0585938 " fill-opacity="1" fill-rule="nonzero"/></g><path fill="#ffffff" d="M 146.65625 66.773438 C 144.753906 65.457031 141.671875 64.777344 137.410156 64.777344 L 93.179688 64.777344 C 89.6875 64.777344 86.96875 65.230469 85.019531 66.09375 C 83.074219 67 82.121094 68.945312 82.121094 71.984375 C 82.121094 74.839844 83.027344 76.96875 84.886719 78.328125 C 86.742188 79.6875 89.507812 80.367188 93.222656 80.367188 L 128.753906 80.367188 C 123.179688 87.4375 118.378906 94.554688 114.296875 101.714844 C 110.265625 108.875 106.867188 115.855469 104.191406 122.605469 C 101.472656 129.40625 99.523438 135.25 98.34375 140.101562 C 97.167969 144.949219 96.53125 148.800781 96.53125 151.65625 C 96.53125 155.328125 97.347656 158.09375 98.980469 159.996094 C 100.613281 161.855469 102.785156 162.804688 105.507812 162.804688 C 108.316406 162.804688 110.628906 161.945312 112.304688 160.175781 C 114.027344 158.410156 115.339844 155.28125 116.246094 150.796875 C 116.65625 148.847656 117.109375 146.039062 117.652344 142.367188 C 118.195312 138.695312 118.648438 135.703125 119.101562 133.394531 C 119.554688 131.082031 120.28125 128.179688 121.367188 124.691406 C 123.90625 116.761719 126.671875 110.050781 129.707031 104.570312 C 132.742188 99.085938 135.6875 94.507812 138.542969 90.792969 C 141.398438 87.074219 143.9375 83.722656 146.160156 80.683594 C 148.378906 77.648438 149.511719 75.15625 149.511719 73.296875 C 149.511719 70.308594 148.558594 68.085938 146.65625 66.773438 " fill-opacity="1" fill-rule="nonzero"/></svg>