<svg xmlns="http://www.w3.org/2000/svg" xmlns:xlink="http://www.w3.org/1999/xlink" width="300" zoomAndPan="magnify" viewBox="0 0 224.87999 225" height="300" preserveAspectRatio="xMidYMid meet" version="1.0"><defs><clipPath id="id1"><path d="M 0 0.0585938 L 224.761719 0.0585938 L 224.761719 224.9375 L 0 224.9375 Z M 0 0.0585938 " clip-rule="nonzero"/></clipPath></defs><g clip-path="url(#id1)"><path fill="#1a2f69" d="M 112.441406 0.0585938 C 50.351562 0.0585938 0 50.410156 0 112.5 C 0 174.589844 50.351562 224.941406 112.441406 224.941406 C 174.527344 224.941406 224.878906 174.589844 224.878906 112.5 C 224.878906 50.410156 174.527344 0.0585938 112.441406 0.0585938 Z M 112.441406 0.0585938 " fill-opacity="1" fill-rule="nonzero"/></g><path fill="#ffffff" d="M 145.613281 117.304688 C 144.164062 113.359375 142.078125 109.960938 139.40625 107.0625 C 136.730469 104.160156 133.605469 101.941406 130.023438 100.355469 C 126.445312 98.769531 122.589844 97.996094 118.375 97.996094 C 113.980469 97.996094 110.039062 98.859375 106.503906 100.582031 C 102.96875 102.304688 99.703125 104.976562 96.667969 108.558594 C 97.257812 96.5 99.160156 88.164062 102.378906 83.449219 C 103.964844 81.136719 105.914062 79.324219 108.269531 77.964844 C 110.582031 76.605469 112.9375 75.925781 115.296875 75.925781 C 118.195312 75.925781 120.777344 76.742188 123 78.328125 C 125.21875 79.960938 126.804688 82.089844 127.847656 84.71875 C 128.621094 86.804688 129.753906 88.433594 131.382812 89.613281 C 132.96875 90.792969 134.691406 91.378906 136.550781 91.378906 C 138.679688 91.378906 140.402344 90.65625 141.808594 89.160156 C 143.167969 87.664062 143.847656 86.03125 143.847656 84.21875 C 143.847656 81.230469 142.757812 78.054688 140.539062 74.792969 C 138.363281 71.53125 135.101562 68.765625 130.792969 66.546875 C 126.488281 64.324219 121.503906 63.238281 115.839844 63.238281 C 109.949219 63.238281 104.691406 64.324219 100.113281 66.546875 C 95.488281 68.765625 91.59375 72.027344 88.375 76.378906 C 85.15625 80.730469 82.664062 86.167969 80.941406 92.785156 C 79.21875 99.402344 78.359375 106.878906 78.359375 115.21875 C 78.359375 125.507812 79.765625 134.164062 82.621094 141.277344 C 85.472656 148.394531 89.597656 153.742188 94.992188 157.367188 C 100.382812 160.992188 106.820312 162.804688 114.253906 162.804688 C 120.734375 162.804688 126.488281 161.402344 131.609375 158.546875 C 136.730469 155.691406 140.71875 151.703125 143.574219 146.625 C 146.429688 141.550781 147.835938 135.886719 147.835938 129.632812 C 147.789062 125.324219 147.066406 121.246094 145.613281 117.304688 M 125.671875 144.269531 C 122.773438 147.941406 119.058594 149.753906 114.570312 149.753906 C 109.855469 149.753906 106.003906 147.757812 102.878906 143.769531 C 99.796875 139.78125 98.210938 134.796875 98.210938 128.816406 C 98.210938 125.097656 98.980469 121.835938 100.519531 119.070312 C 102.0625 116.308594 104.054688 114.175781 106.546875 112.726562 C 109.039062 111.277344 111.667969 110.550781 114.433594 110.550781 C 117.289062 110.550781 119.964844 111.320312 122.320312 112.863281 C 124.675781 114.402344 126.578125 116.625 127.984375 119.480469 C 129.34375 122.378906 130.023438 125.824219 130.023438 129.859375 C 130.070312 135.839844 128.621094 140.644531 125.671875 144.269531 " fill-opacity="1" fill-rule="nonzero"/></svg>