<svg xmlns="http://www.w3.org/2000/svg" xmlns:xlink="http://www.w3.org/1999/xlink" width="300" zoomAndPan="magnify" viewBox="0 0 224.87999 225" height="300" preserveAspectRatio="xMidYMid meet" version="1.0"><defs><clipPath id="id1"><path d="M 0 0.0585938 L 224.761719 0.0585938 L 224.761719 224.9375 L 0 224.9375 Z M 0 0.0585938 " clip-rule="nonzero"/></clipPath></defs><g clip-path="url(#id1)"><path fill="#1a2f69" d="M 112.441406 0.0585938 C 50.351562 0.0585938 0 50.410156 0 112.5 C 0 174.589844 50.351562 224.941406 112.441406 224.941406 C 174.527344 224.941406 224.878906 174.589844 224.878906 112.5 C 224.878906 50.410156 174.527344 0.0585938 112.441406 0.0585938 Z M 112.441406 0.0585938 " fill-opacity="1" fill-rule="nonzero"/></g><path fill="#ffffff" d="M 144.890625 122.289062 C 143.710938 119.390625 141.898438 116.761719 139.542969 114.359375 C 137.183594 111.957031 134.285156 109.824219 130.792969 107.96875 C 134.375 104.976562 137.140625 101.851562 139.042969 98.722656 C 140.945312 95.550781 141.945312 91.742188 141.945312 87.347656 C 141.945312 83.992188 141.265625 80.820312 139.949219 77.921875 C 138.636719 75.019531 136.640625 72.4375 134.058594 70.214844 C 131.429688 67.996094 128.394531 66.320312 124.8125 65.140625 C 121.277344 63.960938 117.335938 63.371094 113.074219 63.371094 C 108.179688 63.371094 103.691406 64.050781 99.75 65.457031 C 95.808594 66.863281 92.453125 68.71875 89.78125 70.988281 C 87.105469 73.296875 85.066406 75.699219 83.660156 78.238281 C 82.257812 80.777344 81.578125 83.222656 81.578125 85.488281 C 81.578125 87.890625 82.300781 89.792969 83.796875 91.246094 C 85.292969 92.695312 86.925781 93.421875 88.691406 93.421875 C 90.1875 93.421875 91.503906 93.148438 92.679688 92.605469 C 93.8125 92.058594 94.628906 91.335938 95.082031 90.429688 C 95.851562 88.707031 96.667969 86.847656 97.574219 84.898438 C 98.480469 82.949219 99.433594 81.363281 100.476562 80.140625 C 101.472656 78.917969 102.878906 77.921875 104.644531 77.148438 C 106.414062 76.378906 108.632812 76.015625 111.308594 76.015625 C 115.296875 76.015625 118.46875 77.242188 120.777344 79.6875 C 123.136719 82.136719 124.3125 85.082031 124.3125 88.480469 C 124.3125 92.96875 122.863281 96.367188 119.917969 98.769531 C 116.972656 101.167969 113.480469 102.347656 109.402344 102.347656 L 106.683594 102.347656 C 103.558594 102.347656 101.15625 102.984375 99.570312 104.296875 C 97.984375 105.609375 97.167969 107.332031 97.167969 109.464844 C 97.167969 111.640625 97.847656 113.316406 99.160156 114.539062 C 100.476562 115.761719 102.378906 116.351562 104.824219 116.351562 C 105.371094 116.351562 106.546875 116.261719 108.40625 116.082031 C 110.265625 115.898438 111.625 115.808594 112.53125 115.808594 C 117.5625 115.808594 121.503906 117.257812 124.359375 120.203125 C 127.167969 123.148438 128.621094 127.230469 128.621094 132.394531 C 128.621094 135.886719 127.804688 138.96875 126.125 141.640625 C 124.449219 144.316406 122.363281 146.308594 119.828125 147.667969 C 117.289062 149.027344 114.617188 149.707031 111.894531 149.707031 C 107.136719 149.707031 103.421875 148.210938 100.792969 145.222656 C 98.164062 142.230469 95.671875 137.652344 93.40625 131.535156 C 93.042969 130.539062 92.316406 129.632812 91.140625 128.90625 C 90.007812 128.179688 88.78125 127.816406 87.558594 127.816406 C 85.066406 127.816406 83.027344 128.589844 81.351562 130.175781 C 79.671875 131.761719 78.859375 133.800781 78.859375 136.382812 C 78.859375 138.378906 79.539062 140.914062 80.941406 143.953125 C 82.347656 146.988281 84.386719 149.980469 87.105469 152.835938 C 89.824219 155.691406 93.269531 158.046875 97.484375 159.949219 C 101.699219 161.855469 106.457031 162.804688 111.761719 162.804688 C 116.972656 162.804688 121.730469 161.988281 126.082031 160.3125 C 130.433594 158.636719 134.101562 156.371094 137.277344 153.425781 C 140.402344 150.480469 142.804688 147.125 144.390625 143.363281 C 146.023438 139.601562 146.792969 135.703125 146.792969 131.671875 C 146.65625 128.316406 146.066406 125.191406 144.890625 122.289062 " fill-opacity="1" fill-rule="nonzero"/></svg>