<svg xmlns="http://www.w3.org/2000/svg" xmlns:xlink="http://www.w3.org/1999/xlink" width="300" zoomAndPan="magnify" viewBox="0 0 224.87999 225" height="300" preserveAspectRatio="xMidYMid meet" version="1.0"><defs><clipPath id="id1"><path d="M 0 0.0585938 L 224.761719 0.0585938 L 224.761719 224.9375 L 0 224.9375 Z M 0 0.0585938 " clip-rule="nonzero"/></clipPath></defs><g clip-path="url(#id1)"><path fill="#1a2f69" d="M 112.441406 0.0585938 C 50.351562 0.0585938 0 50.410156 0 112.5 C 0 174.589844 50.351562 224.941406 112.441406 224.941406 C 174.527344 224.941406 224.878906 174.589844 224.878906 112.5 C 224.878906 50.410156 174.527344 0.0585938 112.441406 0.0585938 Z M 112.441406 0.0585938 " fill-opacity="1" fill-rule="nonzero"/></g><path fill="#ffffff" d="M 144.933594 147.625 C 143.121094 146.21875 140.492188 145.492188 137.050781 145.492188 L 102.378906 145.492188 C 103.464844 143.816406 104.554688 142.367188 105.640625 141.1875 C 108.132812 138.195312 112.710938 133.9375 119.328125 128.5 C 125.992188 123.058594 130.75 119.070312 133.558594 116.535156 C 136.371094 113.996094 139.179688 110.460938 141.898438 105.972656 C 144.617188 101.488281 145.976562 96.5 145.976562 91.019531 C 145.976562 87.527344 145.34375 84.128906 144.027344 80.910156 C 142.714844 77.648438 140.902344 74.792969 138.542969 72.300781 C 136.1875 69.808594 133.46875 67.859375 130.386719 66.453125 C 125.628906 64.324219 119.828125 63.28125 113.074219 63.28125 C 107.453125 63.28125 102.558594 64.097656 98.390625 65.773438 C 94.222656 67.453125 90.777344 69.625 88.011719 72.300781 C 85.292969 75.019531 83.253906 78.011719 81.894531 81.320312 C 80.535156 84.628906 79.855469 87.84375 79.855469 90.882812 C 79.855469 93.421875 80.578125 95.414062 82.03125 96.863281 C 83.480469 98.316406 85.339844 99.039062 87.558594 99.039062 C 90.097656 99.039062 92 98.222656 93.316406 96.636719 C 94.628906 95.050781 95.808594 92.785156 96.851562 89.792969 C 97.890625 86.847656 98.617188 85.035156 99.070312 84.355469 C 102.378906 79.28125 106.957031 76.742188 112.757812 76.742188 C 115.523438 76.742188 118.015625 77.375 120.371094 78.601562 C 122.683594 79.824219 124.539062 81.589844 125.898438 83.8125 C 127.261719 86.03125 127.941406 88.570312 127.941406 91.425781 C 127.941406 94.054688 127.304688 96.683594 126.035156 99.449219 C 124.765625 102.210938 122.953125 104.839844 120.507812 107.425781 C 118.105469 110.007812 115.070312 112.589844 111.441406 115.175781 C 109.402344 116.535156 106.003906 119.433594 101.292969 123.785156 C 96.53125 128.136719 91.230469 133.394531 85.339844 139.464844 C 83.933594 140.960938 82.617188 143.046875 81.441406 145.675781 C 80.261719 148.304688 79.628906 150.433594 79.628906 152.019531 C 79.628906 154.511719 80.578125 156.640625 82.4375 158.5 C 84.296875 160.359375 86.878906 161.265625 90.1875 161.265625 L 139.042969 161.265625 C 141.945312 161.265625 144.164062 160.496094 145.570312 159 C 147.019531 157.503906 147.746094 155.644531 147.746094 153.46875 C 147.652344 150.976562 146.746094 149.027344 144.933594 147.625 " fill-opacity="1" fill-rule="nonzero"/></svg>